<?xml version="1.0" encoding="UTF-8" standalone="no"?>
<!-- Generator: Adobe Illustrator 18.1.1, SVG Export Plug-In . SVG Version: 6.00 Build 0)  -->

<svg
   xmlns:dc="http://purl.org/dc/elements/1.1/"
   xmlns:cc="http://creativecommons.org/ns#"
   xmlns:rdf="http://www.w3.org/1999/02/22-rdf-syntax-ns#"
   xmlns:svg="http://www.w3.org/2000/svg"
   xmlns="http://www.w3.org/2000/svg"
   xmlns:sodipodi="http://sodipodi.sourceforge.net/DTD/sodipodi-0.dtd"
   xmlns:inkscape="http://www.inkscape.org/namespaces/inkscape"
   version="1.1"
   id="Layer_1"
   x="0px"
   y="0px"
   viewBox="0 0 265.9 265.9"
   enable-background="new 0 0 265.9 265.9"
   xml:space="preserve"
   inkscape:version="0.91 r13725"
   sodipodi:docname="good-news.svg"><metadata
     id="metadata59"><rdf:RDF><cc:Work
         rdf:about=""><dc:format>image/svg+xml</dc:format><dc:type
           rdf:resource="http://purl.org/dc/dcmitype/StillImage" /></cc:Work></rdf:RDF></metadata><defs
     id="defs57" /><sodipodi:namedview
     pagecolor="#ffffff"
     bordercolor="#666666"
     borderopacity="1"
     objecttolerance="10"
     gridtolerance="10"
     guidetolerance="10"
     inkscape:pageopacity="0"
     inkscape:pageshadow="2"
     inkscape:window-width="1668"
     inkscape:window-height="924"
     id="namedview55"
     showgrid="false"
     inkscape:zoom="2.5103754"
     inkscape:cx="46.779175"
     inkscape:cy="99.630069"
     inkscape:window-x="10"
     inkscape:window-y="34"
     inkscape:window-maximized="0"
     inkscape:current-layer="g3" /><g
     id="g3"><circle
       opacity="0.85"
       fill="#FBFCF7"
       cx="133"
       cy="133"
       r="133"
       id="circle5" /><rect
       x="34.6"
       y="53.3"
       fill="none"
       width="196.7"
       height="100.9"
       id="rect7" /><g
       transform="matrix(1 0 0 1 132.9629 77.3423)"
       style=""
       id="text9"><path
         d="m -34.663998,36 4.932,0 0,-24.012 -5.112,0 0,15.084 -11.124,-15.084 -5.256,0 0,24.012 5.112,0 0,-15.66 11.448,15.66 z"
         style="font-size:36px;font-family:ProximaNovaBold;letter-spacing:1;fill:#333333"
         id="path4188" /><path
         d="m -23.997436,36 16.992,0 0,-4.5 -11.88,0 0,-5.472 11.628,0 0,-4.5 -11.628,0 0,-5.04 11.88,0 0,-4.5 -16.992,0 0,24.012 z"
         style="font-size:36px;font-family:ProximaNovaBold;letter-spacing:1;fill:#333333"
         id="path4190" /><path
         d="m 16.386002,36 5.436,0 6.84,-24.012 -5.724,0 -4.212,17.352 -4.536,-17.352 -3.996,0 -4.5720005,17.352 -4.212,-17.352 -5.724,0 6.876,24.012 5.436,0 4.1760005,-16.488 4.212,16.488 z"
         style="font-size:36px;font-family:ProximaNovaBold;letter-spacing:1;fill:#333333"
         id="path4192" /><path
         d="m 40.640877,36.432 c 1.584,0 2.988,-0.18 4.212,-0.576 1.188,-0.396 2.196,-0.936 2.988,-1.62 0.792,-0.684 1.404,-1.512 1.8,-2.448 0.396,-0.936 0.612,-1.944 0.612,-3.06 0,-1.476 -0.36,-2.664 -1.044,-3.6 -0.684,-0.9 -1.548,-1.62 -2.556,-2.16 -1.008,-0.54 -2.124,-0.972 -3.312,-1.26 l -3.312,-0.828 c -1.008,-0.252 -1.872,-0.54 -2.556,-0.9 -0.684,-0.324 -1.008,-0.792 -1.008,-1.44 0,-0.72 0.288,-1.296 0.864,-1.728 0.576,-0.432 1.44,-0.648 2.52,-0.648 1.224,0 2.448,0.216 3.672,0.648 1.224,0.432 2.304,1.08 3.312,1.98 l 2.844,-3.816 c -2.448,-2.232 -5.544,-3.348 -9.36,-3.348 -1.44,0 -2.7,0.216 -3.816,0.576 -1.152,0.396 -2.088,0.936 -2.88,1.584 -0.792,0.684 -1.368,1.476 -1.8,2.34 -0.432,0.864 -0.612,1.8 -0.612,2.808 0,1.512 0.324,2.736 1.008,3.636 0.684,0.9 1.548,1.62 2.556,2.124 1.008,0.54 2.124,0.936 3.348,1.224 1.188,0.288 2.304,0.54 3.312,0.792 1.008,0.288 1.872,0.576 2.556,0.936 0.684,0.36 1.044,0.9 1.044,1.584 0,0.72 -0.36,1.332 -1.008,1.872 -0.684,0.54 -1.728,0.792 -3.168,0.792 -1.656,0 -3.132,-0.324 -4.428,-0.972 -1.296,-0.648 -2.376,-1.404 -3.204,-2.304 l -2.808,3.996 c 1.152,1.152 2.556,2.088 4.212,2.772 1.656,0.72 3.672,1.044 6.012,1.044 z"
         style="font-size:36px;font-family:ProximaNovaBold;letter-spacing:1;fill:#333333"
         id="path4194" /></g><rect
       x="34.6"
       y="150.2"
       fill="none"
       width="196.7"
       height="75.2"
       id="rect15" /><g
       transform="translate(47.0537,160.1573)"
       id="text17"><path
         d="m 3.795,0 0.87,0 0,-9.225 3.27,0 0,-0.78 -7.41,0 0,0.78 3.27,0 0,9.225 z"
         style="font-size:15px;font-family:ProximaNovaLight;fill:#333333"
         id="path4197"
         inkscape:connector-curvature="0" /><path
         d="m 10.896094,0.18 c 0.54,0 1.02,-0.09 1.455,-0.3 0.42,-0.195 0.795,-0.465 1.095,-0.81 0.3,-0.345 0.525,-0.75 0.69,-1.215 0.165,-0.45 0.255,-0.945 0.255,-1.485 0,-0.525 -0.09,-1.02 -0.255,-1.485 -0.165,-0.45 -0.39,-0.855 -0.69,-1.2 -0.3,-0.345 -0.675,-0.615 -1.095,-0.81 -0.435,-0.195 -0.915,-0.3 -1.455,-0.3 -0.54,0 -1.0200003,0.105 -1.4400002,0.3 -0.4200001,0.195 -0.78,0.465 -1.08,0.81 -0.3,0.345 -0.5400001,0.75 -0.7050001,1.2 -0.165,0.465 -0.24,0.96 -0.24,1.485 0,0.54 0.075,1.035 0.24,1.485 0.165,0.465 0.4050001,0.87 0.7050001,1.215 0.3,0.345 0.6599999,0.615 1.08,0.81 0.4199999,0.21 0.9000002,0.3 1.4400002,0.3 z m 0,-0.705 c -0.42,0 -0.795,-0.075 -1.1250002,-0.255 -0.33,-0.165 -0.615,-0.39 -0.84,-0.69 -0.225,-0.285 -0.39,-0.615 -0.51,-0.99 -0.12,-0.36 -0.165,-0.75 -0.165,-1.17 0,-0.39 0.045,-0.78 0.165,-1.155 0.12,-0.375 0.285,-0.705 0.51,-0.99 0.225,-0.285 0.51,-0.51 0.84,-0.69 0.3300002,-0.165 0.7050002,-0.255 1.1250002,-0.255 0.42,0 0.81,0.09 1.14,0.255 0.33,0.18 0.6,0.405 0.825,0.69 0.225,0.285 0.39,0.615 0.51,0.99 0.12,0.375 0.18,0.765 0.18,1.155 0,0.42 -0.06,0.81 -0.18,1.17 -0.12,0.375 -0.285,0.705 -0.51,0.99 -0.225,0.3 -0.495,0.525 -0.825,0.69 -0.33,0.18 -0.72,0.255 -1.14,0.255 z"
         style="font-size:15px;font-family:ProximaNovaLight;fill:#333333"
         id="path4199"
         inkscape:connector-curvature="0" /><path
         d="m 22.447266,0.18 c 0.45,0 0.84,-0.045 1.185,-0.165 0.33,-0.105 0.615,-0.255 0.84,-0.45 0.225,-0.195 0.39,-0.42 0.51,-0.69 0.12,-0.255 0.18,-0.525 0.18,-0.825 0,-0.45 -0.12,-0.825 -0.345,-1.095 -0.225,-0.27 -0.51,-0.48 -0.84,-0.645 -0.345,-0.15 -0.705,-0.285 -1.095,-0.375 -0.39,-0.09 -0.765,-0.18 -1.095,-0.285 -0.345,-0.105 -0.63,-0.24 -0.855,-0.405 -0.225,-0.15 -0.33,-0.39 -0.33,-0.69 0,-0.375 0.15,-0.69 0.465,-0.945 0.315,-0.24 0.765,-0.375 1.335,-0.375 0.48,0 0.9,0.09 1.275,0.27 0.375,0.18 0.675,0.405 0.885,0.69 l 0.435,-0.555 c -0.27,-0.285 -0.6,-0.54 -1.02,-0.75 -0.42,-0.21 -0.945,-0.315 -1.575,-0.315 -0.42,0 -0.78,0.06 -1.095,0.165 -0.33,0.105 -0.6,0.24 -0.81,0.42 -0.225,0.18 -0.39,0.405 -0.51,0.645 -0.12,0.24 -0.165,0.51 -0.165,0.78 0,0.45 0.105,0.795 0.33,1.035 0.225,0.24 0.51,0.435 0.855,0.585 0.33,0.15 0.705,0.27 1.095,0.36 0.39,0.09 0.765,0.18 1.11,0.285 0.33,0.12 0.615,0.255 0.84,0.435 0.225,0.18 0.345,0.435 0.345,0.765 0,0.42 -0.18,0.78 -0.51,1.05 -0.345,0.285 -0.825,0.42 -1.425,0.42 -0.51,0 -0.975,-0.105 -1.38,-0.315 -0.42,-0.21 -0.735,-0.45 -0.96,-0.75 l -0.465,0.57 c 0.36,0.42 0.765,0.705 1.215,0.885 0.45,0.18 0.975,0.27 1.575,0.27 z"
         style="font-size:15px;font-family:ProximaNovaLight;fill:#333333"
         id="path4201"
         inkscape:connector-curvature="0" /><path
         d="m 28.747031,0.18 c 0.3,0 0.54,-0.03 0.735,-0.12 0.18,-0.075 0.345,-0.18 0.495,-0.33 l -0.3,-0.6 c -0.09,0.09 -0.195,0.18 -0.345,0.24 -0.15,0.075 -0.3,0.105 -0.465,0.105 -0.27,0 -0.45,-0.09 -0.57,-0.27 -0.12,-0.18 -0.18,-0.42 -0.18,-0.72 l 0,-5.04 1.47,0 0,-0.69 -1.47,0 0,-1.98 -0.795,0 0,1.98 -1.2,0 0,0.69 1.2,0 0,5.16 c 0,0.51 0.105,0.9 0.345,1.17 0.24,0.27 0.6,0.405 1.08,0.405 z"
         style="font-size:15px;font-family:ProximaNovaLight;fill:#333333"
         id="path4203"
         inkscape:connector-curvature="0" /><path
         d="m 35.907891,0 0.78,0 0,-5.1 c 0,-0.39 -0.075,-0.735 -0.21,-1.035 -0.135,-0.3 -0.315,-0.54 -0.555,-0.735 -0.24,-0.18 -0.525,-0.33 -0.84,-0.42 -0.33,-0.09 -0.675,-0.135 -1.035,-0.135 -0.6,0 -1.125,0.105 -1.56,0.3 -0.45,0.21 -0.855,0.51 -1.23,0.915 l 0.435,0.54 c 0.33,-0.375 0.675,-0.645 1.035,-0.81 0.36,-0.165 0.78,-0.255 1.245,-0.255 0.27,0 0.51,0.045 0.75,0.105 0.24,0.075 0.435,0.18 0.615,0.33 0.18,0.15 0.315,0.315 0.42,0.525 0.09,0.21 0.15,0.435 0.15,0.705 l 0,1.47 c -0.63,-0.69 -1.44,-1.035 -2.46,-1.035 -0.33,0 -0.63,0.06 -0.93,0.15 -0.3,0.105 -0.57,0.255 -0.81,0.465 -0.24,0.21 -0.435,0.45 -0.585,0.75 -0.15,0.3 -0.21,0.645 -0.21,1.035 0,0.39 0.06,0.735 0.21,1.035 0.15,0.3 0.345,0.555 0.585,0.765 0.24,0.21 0.51,0.36 0.81,0.465 0.3,0.105 0.615,0.15 0.93,0.15 1.005,0 1.83,-0.345 2.46,-1.035 l 0,0.855 z m -2.19,-0.435 c -0.3,0 -0.57,-0.045 -0.81,-0.135 -0.24,-0.09 -0.45,-0.21 -0.63,-0.375 -0.18,-0.15 -0.315,-0.345 -0.405,-0.555 -0.09,-0.21 -0.135,-0.45 -0.135,-0.72 0,-0.51 0.18,-0.945 0.54,-1.29 0.36,-0.33 0.84,-0.51 1.44,-0.51 0.435,0 0.84,0.09 1.23,0.255 0.375,0.165 0.69,0.42 0.96,0.75 l 0,1.59 c -0.27,0.33 -0.585,0.585 -0.96,0.75 -0.39,0.165 -0.795,0.24 -1.23,0.24 z"
         style="font-size:15px;font-family:ProximaNovaLight;fill:#333333"
         id="path4205"
         inkscape:connector-curvature="0" /><path
         d="m 38.780156,2.115 -0.135,0.72 c 0.09,0.03 0.21,0.06 0.36,0.075 0.15,0.03 0.285,0.03 0.42,0.03 0.84,0 1.455,-0.45 1.845,-1.35 l 3.75,-8.835 -0.885,0 -2.61,6.33 -2.64,-6.33 -0.87,0 3.075,7.305 -0.57,1.29 c -0.15,0.36 -0.315,0.585 -0.495,0.705 -0.18,0.12 -0.375,0.18 -0.615,0.18 -0.09,0 -0.21,0 -0.33,-0.03 -0.12,-0.015 -0.225,-0.045 -0.3,-0.09 z"
         style="font-size:15px;font-family:ProximaNovaLight;fill:#333333"
         id="path4207"
         inkscape:connector-curvature="0" /><path
         d="m 55.118672,0 0.78,0 0,-7.245 -0.78,0 0,5.52 c -0.12,0.165 -0.27,0.315 -0.45,0.465 -0.18,0.15 -0.36,0.27 -0.57,0.375 -0.21,0.12 -0.42,0.21 -0.645,0.27 -0.24,0.06 -0.465,0.09 -0.69,0.09 -0.27,0 -0.51,-0.015 -0.72,-0.075 -0.21,-0.06 -0.405,-0.15 -0.555,-0.285 -0.15,-0.135 -0.27,-0.315 -0.36,-0.555 -0.09,-0.24 -0.12,-0.525 -0.12,-0.885 l 0,-4.92 -0.78,0 0,5.1 c 0,0.825 0.195,1.425 0.585,1.785 0.39,0.36 0.945,0.54 1.695,0.54 0.255,0 0.51,-0.03 0.765,-0.105 0.24,-0.06 0.48,-0.15 0.705,-0.27 0.225,-0.105 0.435,-0.24 0.63,-0.39 0.18,-0.15 0.36,-0.3 0.51,-0.48 l 0,1.065 z"
         style="font-size:15px;font-family:ProximaNovaLight;fill:#333333"
         id="path4209"
         inkscape:connector-curvature="0" /><path
         d="m 61.614609,0.18 c 0.48,0 0.915,-0.09 1.32,-0.27 0.39,-0.18 0.735,-0.435 1.02,-0.765 0.285,-0.33 0.51,-0.72 0.66,-1.2 0.15,-0.465 0.24,-0.99 0.24,-1.575 0,-0.57 -0.09,-1.095 -0.24,-1.575 -0.15,-0.465 -0.375,-0.87 -0.66,-1.2 -0.285,-0.33 -0.63,-0.57 -1.02,-0.75 -0.405,-0.18 -0.84,-0.27 -1.32,-0.27 -0.54,0 -1.035,0.135 -1.47,0.39 -0.45,0.255 -0.795,0.57 -1.05,0.93 l 0,-1.14 -0.78,0 0,10.005 0.78,0 0,-3.93 c 0.285,0.42 0.645,0.75 1.095,0.99 0.435,0.24 0.915,0.36 1.425,0.36 z m -0.135,-0.705 c -0.255,0 -0.495,-0.03 -0.735,-0.105 -0.24,-0.075 -0.465,-0.18 -0.675,-0.3 -0.21,-0.12 -0.405,-0.255 -0.57,-0.42 -0.18,-0.15 -0.315,-0.315 -0.405,-0.495 l 0,-3.585 c 0.21,-0.345 0.525,-0.645 0.96,-0.9 0.435,-0.255 0.915,-0.39 1.425,-0.39 0.39,0 0.75,0.09 1.065,0.24 0.315,0.15 0.585,0.375 0.81,0.645 0.21,0.285 0.375,0.615 0.495,0.99 0.105,0.375 0.165,0.78 0.165,1.215 0,0.45 -0.06,0.855 -0.165,1.23 -0.12,0.39 -0.285,0.72 -0.495,0.99 -0.225,0.27 -0.495,0.495 -0.81,0.645 -0.315,0.165 -0.675,0.24 -1.065,0.24 z"
         style="font-size:15px;font-family:ProximaNovaLight;fill:#333333"
         id="path4211"
         inkscape:connector-curvature="0" /><path
         d="m 72.282188,0.18 c 0.3,0 0.539999,-0.03 0.735,-0.12 0.179999,-0.075 0.345,-0.18 0.494999,-0.33 l -0.3,-0.6 c -0.09,0.09 -0.194999,0.18 -0.345,0.24 -0.15,0.075 -0.299999,0.105 -0.465,0.105 -0.27,0 -0.45,-0.09 -0.569999,-0.27 -0.120001,-0.18 -0.180001,-0.42 -0.180001,-0.72 l 0,-5.04 1.47,0 0,-0.69 -1.47,0 0,-1.98 -0.795,0 0,1.98 -1.199999,0 0,0.69 1.199999,0 0,5.16 c 0,0.51 0.105,0.9 0.345,1.17 0.240001,0.27 0.600001,0.405 1.080001,0.405 z"
         style="font-size:15px;font-family:ProximaNovaLight;fill:#333333"
         id="path4213"
         inkscape:connector-curvature="0" /><path
         d="m 77.898047,0.18 c 0.54,0 1.02,-0.09 1.455,-0.3 0.42,-0.195 0.795,-0.465 1.095,-0.81 0.3,-0.345 0.525,-0.75 0.69,-1.215 0.165,-0.45 0.255,-0.945 0.255,-1.485 0,-0.525 -0.09,-1.02 -0.255,-1.485 -0.165,-0.45 -0.39,-0.855 -0.69,-1.2 -0.3,-0.345 -0.675,-0.615 -1.095,-0.81 -0.435,-0.195 -0.915,-0.3 -1.455,-0.3 -0.54,0 -1.02,0.105 -1.44,0.3 -0.42,0.195 -0.78,0.465 -1.08,0.81 -0.3,0.345 -0.54,0.75 -0.705,1.2 -0.165,0.465 -0.24,0.96 -0.24,1.485 0,0.54 0.075,1.035 0.24,1.485 0.165,0.465 0.405,0.87 0.705,1.215 0.3,0.345 0.66,0.615 1.08,0.81 0.42,0.21 0.9,0.3 1.44,0.3 z m 0,-0.705 c -0.42,0 -0.795,-0.075 -1.125,-0.255 -0.33,-0.165 -0.615,-0.39 -0.84,-0.69 -0.225,-0.285 -0.39,-0.615 -0.51,-0.99 -0.12,-0.36 -0.165,-0.75 -0.165,-1.17 0,-0.39 0.045,-0.78 0.165,-1.155 0.12,-0.375 0.285,-0.705 0.51,-0.99 0.225,-0.285 0.51,-0.51 0.84,-0.69 0.33,-0.165 0.705,-0.255 1.125,-0.255 0.42,0 0.81,0.09 1.14,0.255 0.33,0.18 0.6,0.405 0.825,0.69 0.225,0.285 0.39,0.615 0.51,0.99 0.12,0.375 0.18,0.765 0.18,1.155 0,0.42 -0.06,0.81 -0.18,1.17 -0.12,0.375 -0.285,0.705 -0.51,0.99 -0.225,0.3 -0.495,0.525 -0.825,0.69 -0.33,0.18 -0.72,0.255 -1.14,0.255 z"
         style="font-size:15px;font-family:ProximaNovaLight;fill:#333333"
         id="path4215"
         inkscape:connector-curvature="0" /><path
         d="m 92.629219,0 0.795,0 0,-10.005 -0.795,0 0,3.93 c -0.3,-0.42 -0.66,-0.75 -1.095,-0.99 -0.435,-0.24 -0.915,-0.36 -1.425,-0.36 -0.48,0 -0.93,0.09 -1.32,0.27 -0.39,0.18 -0.735,0.45 -1.02,0.78 -0.285,0.33 -0.51,0.735 -0.66,1.2 -0.15,0.48 -0.225,0.99 -0.225,1.56 0,0.585 0.075,1.11 0.225,1.575 0.15,0.48 0.375,0.87 0.66,1.2 0.285,0.33 0.63,0.585 1.02,0.765 0.39,0.18 0.84,0.255 1.32,0.255 0.54,0 1.02,-0.12 1.47,-0.375 0.435,-0.255 0.78,-0.57 1.05,-0.96 l 0,1.155 z m -2.385,-0.525 c -0.405,0 -0.765,-0.075 -1.08,-0.225 -0.315,-0.15 -0.585,-0.375 -0.795,-0.66 -0.21,-0.27 -0.375,-0.6 -0.495,-0.975 -0.12,-0.375 -0.165,-0.78 -0.165,-1.23 0,-0.435 0.045,-0.84 0.165,-1.23 0.12,-0.375 0.285,-0.705 0.495,-0.975 0.21,-0.27 0.48,-0.495 0.795,-0.66 0.315,-0.15 0.675,-0.24 1.08,-0.24 0.24,0 0.495,0.045 0.735,0.105 0.24,0.075 0.465,0.165 0.675,0.285 0.21,0.12 0.39,0.27 0.555,0.42 0.165,0.165 0.3,0.33 0.42,0.51 l 0,3.585 c -0.12,0.18 -0.255,0.345 -0.42,0.495 -0.165,0.15 -0.345,0.285 -0.555,0.405 -0.21,0.12 -0.435,0.225 -0.675,0.285 -0.24,0.075 -0.495,0.105 -0.735,0.105 z"
         style="font-size:15px;font-family:ProximaNovaLight;fill:#333333"
         id="path4217"
         inkscape:connector-curvature="0" /><path
         d="m 100.44891,0 0.78,0 0,-5.1 c 0,-0.39 -0.075,-0.735 -0.21,-1.035 -0.135,-0.3 -0.315,-0.54 -0.555,-0.735 -0.24,-0.18 -0.525004,-0.33 -0.840004,-0.42 -0.33,-0.09 -0.675,-0.135 -1.035,-0.135 -0.6,0 -1.125,0.105 -1.56,0.3 -0.45,0.21 -0.855,0.51 -1.23,0.915 l 0.435,0.54 c 0.33,-0.375 0.675,-0.645 1.035,-0.81 0.36,-0.165 0.78,-0.255 1.245,-0.255 0.27,0 0.51,0.045 0.75,0.105 0.24,0.075 0.435,0.18 0.615,0.33 0.180004,0.15 0.315004,0.315 0.420004,0.525 0.09,0.21 0.15,0.435 0.15,0.705 l 0,1.47 c -0.630004,-0.69 -1.440004,-1.035 -2.460004,-1.035 -0.33,0 -0.63,0.06 -0.93,0.15 -0.3,0.105 -0.57,0.255 -0.81,0.465 -0.24,0.21 -0.435,0.45 -0.585,0.75 -0.15,0.3 -0.21,0.645 -0.21,1.035 0,0.39 0.06,0.735 0.21,1.035 0.15,0.3 0.345,0.555 0.585,0.765 0.24,0.21 0.51,0.36 0.81,0.465 0.3,0.105 0.615,0.15 0.93,0.15 1.005,0 1.83,-0.345 2.460004,-1.035 l 0,0.855 z m -2.190004,-0.435 c -0.3,0 -0.57,-0.045 -0.81,-0.135 -0.24,-0.09 -0.45,-0.21 -0.63,-0.375 -0.18,-0.15 -0.315,-0.345 -0.405,-0.555 -0.09,-0.21 -0.135,-0.45 -0.135,-0.72 0,-0.51 0.18,-0.945 0.54,-1.29 0.36,-0.33 0.84,-0.51 1.44,-0.51 0.435,0 0.84,0.09 1.23,0.255 0.375,0.165 0.690004,0.42 0.960004,0.75 l 0,1.59 c -0.27,0.33 -0.585004,0.585 -0.960004,0.75 -0.39,0.165 -0.795,0.24 -1.23,0.24 z"
         style="font-size:15px;font-family:ProximaNovaLight;fill:#333333"
         id="path4219"
         inkscape:connector-curvature="0" /><path
         d="m 105.24117,0.18 c 0.3,0 0.54,-0.03 0.735,-0.12 0.18,-0.075 0.345,-0.18 0.495,-0.33 l -0.3,-0.6 c -0.09,0.09 -0.195,0.18 -0.345,0.24 -0.15,0.075 -0.3,0.105 -0.465,0.105 -0.27,0 -0.45,-0.09 -0.57,-0.27 -0.12,-0.18 -0.18,-0.42 -0.18,-0.72 l 0,-5.04 1.47,0 0,-0.69 -1.47,0 0,-1.98 -0.795,0 0,1.98 -1.2,0 0,0.69 1.2,0 0,5.16 c 0,0.51 0.105,0.9 0.345,1.17 0.24,0.27 0.6,0.405 1.08,0.405 z"
         style="font-size:15px;font-family:ProximaNovaLight;fill:#333333"
         id="path4221"
         inkscape:connector-curvature="0" /><path
         d="m 111.00703,0.18 c 0.6,0 1.125,-0.09 1.59,-0.3 0.465,-0.195 0.885,-0.48 1.245,-0.87 l -0.405,-0.51 c -0.315,0.33 -0.675,0.585 -1.08,0.75 -0.405,0.18 -0.84,0.255 -1.29,0.255 -0.435,0 -0.825,-0.075 -1.155,-0.225 -0.345,-0.15 -0.645,-0.345 -0.885,-0.615 -0.24,-0.27 -0.435,-0.57 -0.57,-0.93 -0.135,-0.345 -0.21,-0.72 -0.225,-1.11 l 6.06,0 0,-0.21 c 0,-0.51 -0.075,-1.005 -0.225,-1.485 -0.15,-0.465 -0.375,-0.87 -0.66,-1.215 -0.3,-0.345 -0.66,-0.615 -1.08,-0.825 -0.42,-0.21 -0.915,-0.315 -1.455,-0.315 -0.51,0 -0.975,0.105 -1.395,0.3 -0.42,0.21 -0.795,0.48 -1.095,0.81 -0.315,0.345 -0.555,0.75 -0.735,1.215 -0.18,0.465 -0.255,0.96 -0.255,1.47 0,0.57 0.09,1.08 0.27,1.545 0.18,0.465 0.42,0.87 0.75,1.2 0.315,0.345 0.69,0.615 1.14,0.795 0.435,0.18 0.915,0.27 1.455,0.27 z m 2.49,-4.17 -5.265,0 c 0,-0.3 0.06,-0.63 0.18,-0.96 0.12,-0.33 0.285,-0.615 0.51,-0.885 0.21,-0.27 0.48,-0.48 0.81,-0.66 0.315,-0.165 0.69,-0.255 1.125,-0.255 0.45,0 0.84,0.09 1.17,0.255 0.33,0.18 0.6,0.39 0.825,0.66 0.21,0.27 0.375,0.57 0.48,0.9 0.105,0.33 0.165,0.645 0.165,0.945 z"
         style="font-size:15px;font-family:ProximaNovaLight;fill:#333333"
         id="path4223"
         inkscape:connector-curvature="0" /><path
         d="m 126.39961,0 0.75,0 2.355,-7.245 -0.84,0 -1.92,6.15 -2.04,-6.15 -0.675,0 -2.04,6.15 -1.92,-6.15 -0.84,0 2.355,7.245 0.75,0 2.04,-6.195 2.025,6.195 z"
         style="font-size:15px;font-family:ProximaNovaLight;fill:#333333"
         id="path4225"
         inkscape:connector-curvature="0" /><path
         d="m 131.36086,-8.385 c 0.165,0 0.3,-0.045 0.42,-0.165 0.12,-0.12 0.18,-0.255 0.18,-0.435 0,-0.165 -0.06,-0.3 -0.18,-0.42 -0.12,-0.105 -0.255,-0.165 -0.42,-0.165 -0.165,0 -0.3,0.06 -0.42,0.165 -0.12,0.12 -0.18,0.255 -0.18,0.42 0,0.18 0.06,0.315 0.18,0.435 0.12,0.12 0.255,0.165 0.42,0.165 z m -0.39,8.385 0.78,0 0,-7.245 -0.78,0 0,7.245 z"
         style="font-size:15px;font-family:ProximaNovaLight;fill:#333333"
         id="path4227"
         inkscape:connector-curvature="0" /><path
         d="m 135.76852,0.18 c 0.3,0 0.54,-0.03 0.735,-0.12 0.18,-0.075 0.345,-0.18 0.495,-0.33 l -0.3,-0.6 c -0.09,0.09 -0.195,0.18 -0.345,0.24 -0.15,0.075 -0.3,0.105 -0.465,0.105 -0.27,0 -0.45,-0.09 -0.57,-0.27 -0.12,-0.18 -0.18,-0.42 -0.18,-0.72 l 0,-5.04 1.47,0 0,-0.69 -1.47,0 0,-1.98 -0.795,0 0,1.98 -1.2,0 0,0.69 1.2,0 0,5.16 c 0,0.51 0.105,0.9 0.345,1.17 0.24,0.27 0.6,0.405 1.08,0.405 z"
         style="font-size:15px;font-family:ProximaNovaLight;fill:#333333"
         id="path4229"
         inkscape:connector-curvature="0" /><path
         d="m 143.21437,0 0.78,0 0,-5.1 c 0,-0.81 -0.195,-1.41 -0.585,-1.77 -0.39,-0.36 -0.96,-0.555 -1.695,-0.555 -0.27,0 -0.525,0.045 -0.78,0.12 -0.255,0.075 -0.495,0.165 -0.72,0.285 -0.24,0.12 -0.45,0.255 -0.63,0.405 -0.195,0.15 -0.36,0.315 -0.48,0.465 l 0,-3.855 -0.78,0 0,10.005 0.78,0 0,-5.475 c 0.12,-0.15 0.255,-0.315 0.435,-0.465 0.165,-0.15 0.36,-0.285 0.57,-0.405 0.21,-0.105 0.42,-0.195 0.66,-0.27 0.225,-0.06 0.45001,-0.105 0.69,-0.105 0.255,0 0.495,0.03 0.705,0.09 0.21,0.06 0.405,0.15 0.55501,0.285 0.14999,0.135 0.26999,0.315 0.35999,0.54 0.09,0.24 0.135,0.525 0.135,0.87 l 0,4.935 z"
         style="font-size:15px;font-family:ProximaNovaLight;fill:#333333"
         id="path4231"
         inkscape:connector-curvature="0" /><path
         d="m 153.3668,0.18 c 0.54,0 1.02,-0.09 1.455,-0.3 0.42,-0.195 0.795,-0.465 1.095,-0.81 0.3,-0.345 0.525,-0.75 0.69,-1.215 0.165,-0.45 0.255,-0.945 0.255,-1.485 0,-0.525 -0.09,-1.02 -0.255,-1.485 -0.165,-0.45 -0.39,-0.855 -0.69,-1.2 -0.3,-0.345 -0.675,-0.615 -1.095,-0.81 -0.435,-0.195 -0.915,-0.3 -1.455,-0.3 -0.54,0 -1.02,0.105 -1.44,0.3 -0.42,0.195 -0.78,0.465 -1.08,0.81 -0.3,0.345 -0.54,0.75 -0.705,1.2 -0.165,0.465 -0.24,0.96 -0.24,1.485 0,0.54 0.075,1.035 0.24,1.485 0.165,0.465 0.405,0.87 0.705,1.215 0.3,0.345 0.66,0.615 1.08,0.81 0.42,0.21 0.9,0.3 1.44,0.3 z m 0,-0.705 c -0.42,0 -0.795,-0.075 -1.125,-0.255 -0.33,-0.165 -0.615,-0.39 -0.84,-0.69 -0.225,-0.285 -0.39,-0.615 -0.51,-0.99 -0.12,-0.36 -0.165,-0.75 -0.165,-1.17 0,-0.39 0.045,-0.78 0.165,-1.155 0.12,-0.375 0.285,-0.705 0.51,-0.99 0.225,-0.285 0.51,-0.51 0.84,-0.69 0.33,-0.165 0.705,-0.255 1.125,-0.255 0.42,0 0.81,0.09 1.14,0.255 0.33,0.18 0.6,0.405 0.825,0.69 0.225,0.285 0.39,0.615 0.51,0.99 0.12,0.375 0.18,0.765 0.18,1.155 0,0.42 -0.06,0.81 -0.18,1.17 -0.12,0.375 -0.285,0.705 -0.51,0.99 -0.225,0.3 -0.495,0.525 -0.825,0.69 -0.33,0.18 -0.72,0.255 -1.14,0.255 z"
         style="font-size:15px;font-family:ProximaNovaLight;fill:#333333"
         id="path4233"
         inkscape:connector-curvature="0" /><path
         d="m 163.75148,0 0.78,0 0,-7.245 -0.78,0 0,5.52 c -0.12,0.165 -0.27,0.315 -0.45,0.465 -0.18,0.15 -0.36,0.27 -0.57,0.375 -0.21,0.12 -0.42,0.21 -0.645,0.27 -0.24,0.06 -0.465,0.09 -0.69,0.09 -0.27,0 -0.51,-0.015 -0.72,-0.075 -0.21,-0.06 -0.405,-0.15 -0.555,-0.285 -0.15,-0.135 -0.27,-0.315 -0.36,-0.555 -0.09,-0.24 -0.12,-0.525 -0.12,-0.885 l 0,-4.92 -0.78,0 0,5.1 c 0,0.825 0.195,1.425 0.585,1.785 0.39,0.36 0.945,0.54 1.695,0.54 0.255,0 0.51,-0.03 0.765,-0.105 0.24,-0.06 0.48,-0.15 0.705,-0.27 0.225,-0.105 0.435,-0.24 0.63,-0.39 0.18,-0.15 0.36,-0.3 0.51,-0.48 l 0,1.065 z"
         style="font-size:15px;font-family:ProximaNovaLight;fill:#333333"
         id="path4235"
         inkscape:connector-curvature="0" /><path
         d="m 166.94742,0 0.78,0 0,-5.28 c 0.075,-0.15 0.195,-0.315 0.345,-0.465 0.15,-0.15 0.33,-0.3 0.525,-0.42 0.18,-0.12 0.39,-0.21 0.6,-0.285 0.21,-0.075 0.405,-0.12 0.585,-0.12 l 0.195,0 c 0.06,0 0.12,0.015 0.195,0.03 l 0,-0.855 c -0.51,0 -0.975,0.135 -1.38,0.39 -0.405,0.27 -0.765,0.6 -1.065,1.005 l 0,-1.245 -0.78,0 0,7.245 z"
         style="font-size:15px;font-family:ProximaNovaLight;fill:#333333"
         id="path4237"
         inkscape:connector-curvature="0" /><path
         d="m 3.115,20 0.78,0 0,-10.005 -0.78,0 0,10.005 z"
         style="font-size:15px;font-family:ProximaNovaLight;fill:#333333"
         id="path4239"
         inkscape:connector-curvature="0" /><path
         d="m 10.942656,20 0.78,0 0,-5.1 c 0,-0.39 -0.075,-0.735 -0.21,-1.035 -0.135,-0.3 -0.315,-0.54 -0.555,-0.735 -0.24,-0.18 -0.525,-0.33 -0.84,-0.42 -0.3299998,-0.09 -0.6749998,-0.135 -1.0349998,-0.135 -0.6,0 -1.125,0.105 -1.56,0.3 -0.45,0.21 -0.855,0.51 -1.23,0.915 l 0.435,0.54 c 0.33,-0.375 0.675,-0.645 1.035,-0.81 0.36,-0.165 0.78,-0.255 1.245,-0.255 0.27,0 0.51,0.045 0.75,0.105 0.24,0.075 0.4349998,0.18 0.6149998,0.33 0.18,0.15 0.315,0.315 0.42,0.525 0.09,0.21 0.15,0.435 0.15,0.705 l 0,1.47 c -0.63,-0.69 -1.4399998,-1.035 -2.4599998,-1.035 -0.33,0 -0.63,0.06 -0.93,0.15 -0.3,0.105 -0.57,0.255 -0.81,0.465 -0.24,0.21 -0.435,0.45 -0.585,0.75 -0.15,0.3 -0.21,0.645 -0.21,1.035 0,0.39 0.06,0.735 0.21,1.035 0.15,0.3 0.345,0.555 0.585,0.765 0.24,0.21 0.51,0.36 0.81,0.465 0.3,0.105 0.615,0.15 0.93,0.15 1.005,0 1.8299998,-0.345 2.4599998,-1.035 l 0,0.855 z M 8.7526562,19.565 c -0.3,0 -0.57,-0.045 -0.81,-0.135 -0.24,-0.09 -0.45,-0.21 -0.63,-0.375 -0.18,-0.15 -0.315,-0.345 -0.405,-0.555 -0.09,-0.21 -0.135,-0.45 -0.135,-0.72 0,-0.51 0.18,-0.945 0.54,-1.29 0.36,-0.33 0.84,-0.51 1.44,-0.51 0.435,0 0.84,0.09 1.23,0.255 0.3749998,0.165 0.6899998,0.42 0.9599998,0.75 l 0,1.59 c -0.27,0.33 -0.585,0.585 -0.9599998,0.75 -0.39,0.165 -0.795,0.24 -1.23,0.24 z"
         style="font-size:15px;font-family:ProximaNovaLight;fill:#333333"
         id="path4241"
         inkscape:connector-curvature="0" /><path
         d="m 15.734922,20.18 c 0.3,0 0.54,-0.03 0.735,-0.12 0.18,-0.075 0.345,-0.18 0.495,-0.33 l -0.3,-0.6 c -0.09,0.09 -0.195,0.18 -0.345,0.24 -0.15,0.075 -0.3,0.105 -0.465,0.105 -0.27,0 -0.45,-0.09 -0.57,-0.27 -0.12,-0.18 -0.18,-0.42 -0.18,-0.72 l 0,-5.04 1.47,0 0,-0.69 -1.47,0 0,-1.98 -0.795,0 0,1.98 -1.2,0 0,0.69 1.2,0 0,5.16 c 0,0.51 0.105,0.9 0.345,1.17 0.24,0.27 0.6,0.405 1.08,0.405 z"
         style="font-size:15px;font-family:ProximaNovaLight;fill:#333333"
         id="path4243"
         inkscape:connector-curvature="0" /><path
         d="m 21.500781,20.18 c 0.6,0 1.125,-0.09 1.59,-0.3 0.465,-0.195 0.885,-0.48 1.245,-0.87 l -0.405,-0.51 c -0.315,0.33 -0.675,0.585 -1.08,0.75 -0.405,0.18 -0.84,0.255 -1.29,0.255 -0.435,0 -0.825,-0.075 -1.155,-0.225 -0.345,-0.15 -0.645,-0.345 -0.885,-0.615 -0.24,-0.27 -0.435,-0.57 -0.57,-0.93 -0.135,-0.345 -0.21,-0.72 -0.225,-1.11 l 6.06,0 0,-0.21 c 0,-0.51 -0.075,-1.005 -0.225,-1.485 -0.15,-0.465 -0.375,-0.87 -0.66,-1.215 -0.3,-0.345 -0.66,-0.615 -1.08,-0.825 -0.42,-0.21 -0.915,-0.315 -1.455,-0.315 -0.51,0 -0.975,0.105 -1.395,0.3 -0.42,0.21 -0.795,0.48 -1.095,0.81 -0.315,0.345 -0.555,0.75 -0.735,1.215 -0.18,0.465 -0.255,0.96 -0.255,1.47 0,0.57 0.09,1.08 0.27,1.545 0.18,0.465 0.42,0.87 0.75,1.2 0.315,0.345 0.69,0.615 1.14,0.795 0.435,0.18 0.915,0.27 1.455,0.27 z m 2.49,-4.17 -5.265,0 c 0,-0.3 0.06,-0.63 0.18,-0.96 0.12,-0.33 0.285,-0.615 0.51,-0.885 0.21,-0.27 0.48,-0.48 0.81,-0.66 0.315,-0.165 0.69,-0.255 1.125,-0.255 0.45,0 0.84,0.09 1.17,0.255 0.33,0.18 0.6,0.39 0.825,0.66 0.21,0.27 0.375,0.57 0.48,0.9 0.105,0.33 0.165,0.645 0.165,0.945 z"
         style="font-size:15px;font-family:ProximaNovaLight;fill:#333333"
         id="path4245"
         inkscape:connector-curvature="0" /><path
         d="m 28.946875,20.18 c 0.45,0 0.84,-0.045 1.185,-0.165 0.33,-0.105 0.615,-0.255 0.84,-0.45 0.225,-0.195 0.39,-0.42 0.51,-0.69 0.12,-0.255 0.18,-0.525 0.18,-0.825 0,-0.45 -0.12,-0.825 -0.345,-1.095 -0.225,-0.27 -0.51,-0.48 -0.84,-0.645 -0.345,-0.15 -0.705,-0.285 -1.095,-0.375 -0.39,-0.09 -0.765,-0.18 -1.095,-0.285 -0.345,-0.105 -0.63,-0.24 -0.855,-0.405 -0.225,-0.15 -0.33,-0.39 -0.33,-0.69 0,-0.375 0.15,-0.69 0.465,-0.945 0.315,-0.24 0.765,-0.375 1.335,-0.375 0.48,0 0.9,0.09 1.275,0.27 0.375,0.18 0.675,0.405 0.885,0.69 l 0.435,-0.555 c -0.27,-0.285 -0.6,-0.54 -1.02,-0.75 -0.42,-0.21 -0.945,-0.315 -1.575,-0.315 -0.42,0 -0.78,0.06 -1.095,0.165 -0.33,0.105 -0.6,0.24 -0.81,0.42 -0.225,0.18 -0.39,0.405 -0.51,0.645 -0.12,0.24 -0.165,0.51 -0.165,0.78 0,0.45 0.105,0.795 0.33,1.035 0.225,0.24 0.51,0.435 0.855,0.585 0.33,0.15 0.705,0.27 1.095,0.36 0.39,0.09 0.765,0.18 1.11,0.285 0.33,0.12 0.615,0.255 0.84,0.435 0.225,0.18 0.345,0.435 0.345,0.765 0,0.42 -0.18,0.78 -0.51,1.05 -0.345,0.285 -0.825,0.42 -1.425,0.42 -0.51,0 -0.975,-0.105 -1.38,-0.315 -0.42,-0.21 -0.735,-0.45 -0.96,-0.75 l -0.465,0.57 c 0.36,0.42 0.765,0.705 1.215,0.885 0.45,0.18 0.975,0.27 1.575,0.27 z"
         style="font-size:15px;font-family:ProximaNovaLight;fill:#333333"
         id="path4247"
         inkscape:connector-curvature="0" /><path
         d="m 35.246641,20.18 c 0.3,0 0.54,-0.03 0.735,-0.12 0.18,-0.075 0.345,-0.18 0.495,-0.33 l -0.3,-0.6 c -0.09,0.09 -0.195,0.18 -0.345,0.24 -0.15,0.075 -0.3,0.105 -0.465,0.105 -0.27,0 -0.45,-0.09 -0.57,-0.27 -0.12,-0.18 -0.18,-0.42 -0.18,-0.72 l 0,-5.04 1.47,0 0,-0.69 -1.47,0 0,-1.98 -0.795,0 0,1.98 -1.2,0 0,0.69 1.2,0 0,5.16 c 0,0.51 0.105,0.9 0.345,1.17 0.24,0.27 0.6,0.405 1.08,0.405 z"
         style="font-size:15px;font-family:ProximaNovaLight;fill:#333333"
         id="path4249"
         inkscape:connector-curvature="0" /><path
         d="m 46.588984,20 0.78,0 0,-5.07 c 0,-0.81 -0.195,-1.41 -0.585,-1.785 -0.39,-0.375 -0.96,-0.57 -1.695,-0.57 -0.27,0 -0.525,0.045 -0.78,0.12 -0.255,0.075 -0.495,0.165 -0.72,0.285 -0.24,0.12 -0.45,0.255 -0.63,0.405 -0.195,0.15 -0.36,0.315 -0.48,0.465 l 0,-1.095 -0.78,0 0,7.245 0.78,0 0,-5.475 c 0.12,-0.15 0.255,-0.315 0.435,-0.465 0.165,-0.15 0.36,-0.285 0.57,-0.405 0.21,-0.105 0.42,-0.195 0.66,-0.27 0.225,-0.06 0.45,-0.105 0.69,-0.105 0.255,0 0.495,0.03 0.705,0.09 0.21,0.06 0.405,0.165 0.555,0.3 0.15,0.15 0.27,0.33 0.36,0.555 0.09,0.24 0.135,0.525 0.135,0.87 l 0,4.905 z"
         style="font-size:15px;font-family:ProximaNovaLight;fill:#333333"
         id="path4251"
         inkscape:connector-curvature="0" /><path
         d="m 52.994922,20.18 c 0.6,0 1.125,-0.09 1.59,-0.3 0.465,-0.195 0.885,-0.48 1.245,-0.87 l -0.405,-0.51 c -0.315,0.33 -0.675,0.585 -1.08,0.75 -0.405,0.18 -0.84,0.255 -1.29,0.255 -0.435,0 -0.825,-0.075 -1.155,-0.225 -0.345,-0.15 -0.645,-0.345 -0.885,-0.615 -0.24,-0.27 -0.435,-0.57 -0.57,-0.93 -0.135,-0.345 -0.21,-0.72 -0.225,-1.11 l 6.06,0 0,-0.21 c 0,-0.51 -0.075,-1.005 -0.225,-1.485 -0.15,-0.465 -0.375,-0.87 -0.66,-1.215 -0.3,-0.345 -0.66,-0.615 -1.08,-0.825 -0.42,-0.21 -0.915,-0.315 -1.455,-0.315 -0.51,0 -0.975,0.105 -1.395,0.3 -0.42,0.21 -0.795,0.48 -1.095,0.81 -0.315,0.345 -0.555,0.75 -0.735,1.215 -0.18,0.465 -0.255,0.96 -0.255,1.47 0,0.57 0.09,1.08 0.27,1.545 0.18,0.465 0.42,0.87 0.75,1.2 0.315,0.345 0.69,0.615 1.14,0.795 0.435,0.18 0.915,0.27 1.455,0.27 z m 2.49,-4.17 -5.265,0 c 0,-0.3 0.06,-0.63 0.18,-0.96 0.12,-0.33 0.285,-0.615 0.51,-0.885 0.21,-0.27 0.48,-0.48 0.81,-0.66 0.315,-0.165 0.69,-0.255 1.125,-0.255 0.45,0 0.84,0.09 1.17,0.255 0.33,0.18 0.6,0.39 0.825,0.66 0.21,0.27 0.375,0.57 0.48,0.9 0.105,0.33 0.165,0.645 0.165,0.945 z"
         style="font-size:15px;font-family:ProximaNovaLight;fill:#333333"
         id="path4253"
         inkscape:connector-curvature="0" /><path
         d="m 64.491016,20 0.75,0 2.355,-7.245 -0.84,0 -1.92,6.15 -2.04,-6.15 -0.675,0 -2.04,6.15 -1.92,-6.15 -0.84,0 2.355,7.245 0.75,0 2.04,-6.195 2.025,6.195 z"
         style="font-size:15px;font-family:ProximaNovaLight;fill:#333333"
         id="path4255"
         inkscape:connector-curvature="0" /><path
         d="m 71.222266,20.18 c 0.45,0 0.84,-0.045 1.185,-0.165 0.33,-0.105 0.615,-0.255 0.84,-0.45 0.225,-0.195 0.39,-0.42 0.51,-0.69 0.12,-0.255 0.18,-0.525 0.18,-0.825 0,-0.45 -0.12,-0.825 -0.345,-1.095 -0.225,-0.27 -0.51,-0.48 -0.84,-0.645 -0.345,-0.15 -0.705,-0.285 -1.095,-0.375 -0.39,-0.09 -0.765,-0.18 -1.095,-0.285 -0.345,-0.105 -0.63,-0.24 -0.855,-0.405 -0.225,-0.15 -0.33,-0.39 -0.33,-0.69 0,-0.375 0.15,-0.69 0.465,-0.945 0.315,-0.24 0.765,-0.375 1.335,-0.375 0.48,0 0.9,0.09 1.275,0.27 0.375,0.18 0.675,0.405 0.885,0.69 l 0.435,-0.555 c -0.27,-0.285 -0.6,-0.54 -1.02,-0.75 -0.42,-0.21 -0.945,-0.315 -1.575,-0.315 -0.42,0 -0.78,0.06 -1.095,0.165 -0.33,0.105 -0.6,0.24 -0.81,0.42 -0.225,0.18 -0.39,0.405 -0.51,0.645 -0.12,0.24 -0.165,0.51 -0.165,0.78 0,0.45 0.105,0.795 0.33,1.035 0.225,0.24 0.51,0.435 0.855,0.585 0.33,0.15 0.705,0.27 1.095,0.36 0.39,0.09 0.765,0.18 1.11,0.285 0.33,0.12 0.615,0.255 0.84,0.435 0.225,0.18 0.345,0.435 0.345,0.765 0,0.42 -0.18,0.78 -0.51,1.05 -0.345,0.285 -0.825,0.42 -1.425,0.42 -0.51,0 -0.975,-0.105 -1.38,-0.315 -0.42,-0.21 -0.735,-0.45 -0.96,-0.75 l -0.465,0.57 c 0.36,0.42 0.765,0.705 1.215,0.885 0.45,0.18 0.975,0.27 1.575,0.27 z"
         style="font-size:15px;font-family:ProximaNovaLight;fill:#333333"
         id="path4257"
         inkscape:connector-curvature="0" /><path
         d="m 77.117031,19.79 c 0,-0.3 -0.09,-0.54 -0.24,-0.705 -0.15,-0.165 -0.33,-0.255 -0.525,-0.255 -0.18,0 -0.345,0.075 -0.465,0.195 -0.12,0.135 -0.18,0.285 -0.18,0.45 0,0.18 0.045,0.33 0.165,0.45 0.12,0.12 0.27,0.18 0.45,0.18 l 0.09,0 c 0.015,0 0.03,0 0.06,-0.015 -0.03,0.24 -0.12,0.48 -0.27,0.735 -0.165,0.27 -0.36,0.48 -0.6,0.645 l 0.435,0.36 c 0.285,-0.195 0.54,-0.48 0.75,-0.855 0.21,-0.36 0.33,-0.765 0.33,-1.185 z"
         style="font-size:15px;font-family:ProximaNovaLight;fill:#333333"
         id="path4259"
         inkscape:connector-curvature="0" /><path
         d="m 83.379766,20 0.795,0 0,-6.555 1.47,0 0,-0.69 -1.47,0 0,-0.66 c 0,-0.48 0.09,-0.87 0.3,-1.14 0.21,-0.27 0.525,-0.405 0.945,-0.405 0.195,0 0.375,0.045 0.525,0.105 0.15,0.075 0.285,0.165 0.405,0.27 l 0.375,-0.57 c -0.24,-0.195 -0.465,-0.33 -0.675,-0.405 -0.21,-0.06 -0.45,-0.105 -0.705,-0.105 -0.615,0 -1.095,0.21 -1.44,0.6 -0.36,0.39 -0.525,0.945 -0.525,1.65 l 0,0.66 -1.2,0 0,0.69 1.2,0 0,6.555 z"
         style="font-size:15px;font-family:ProximaNovaLight;fill:#333333"
         id="path4261"
         inkscape:connector-curvature="0" /><path
         d="m 87.499141,11.615 c 0.165,0 0.3,-0.045 0.42,-0.165 0.12,-0.12 0.18,-0.255 0.18,-0.435 0,-0.165 -0.06,-0.3 -0.18,-0.42 -0.12,-0.105 -0.255,-0.165 -0.42,-0.165 -0.165,0 -0.3,0.06 -0.42,0.165 -0.12,0.12 -0.18,0.255 -0.18,0.42 0,0.18 0.06,0.315 0.18,0.435 0.12,0.12 0.255,0.165 0.42,0.165 z m -0.39,8.385 0.78,0 0,-7.245 -0.78,0 0,7.245 z"
         style="font-size:15px;font-family:ProximaNovaLight;fill:#333333"
         id="path4263"
         inkscape:connector-curvature="0" /><path
         d="m 90.331797,20 0.78,0 0,-10.005 -0.78,0 0,10.005 z"
         style="font-size:15px;font-family:ProximaNovaLight;fill:#333333"
         id="path4265"
         inkscape:connector-curvature="0" /><path
         d="m 102.17945,20 0.78,0 0,-5.22 c 0,-1.47 -0.66,-2.205 -1.98,-2.205 -0.27,0 -0.51,0.045 -0.75,0.12 -0.239997,0.09 -0.464997,0.195 -0.674997,0.315 -0.21,0.12 -0.405,0.27 -0.57,0.435 -0.18,0.165 -0.315,0.33 -0.405,0.495 -0.06,-0.18 -0.135,-0.345 -0.225,-0.51 -0.09,-0.15 -0.225,-0.3 -0.375,-0.435 -0.165,-0.12 -0.36,-0.225 -0.57,-0.3 -0.21,-0.075 -0.465,-0.12 -0.735,-0.12 -0.27,0 -0.525,0.045 -0.765,0.135 -0.255,0.09 -0.48,0.21 -0.69,0.33 -0.21,0.135 -0.405,0.27 -0.555,0.42 -0.15,0.15 -0.27,0.27 -0.33,0.39 l 0,-1.095 -0.78,0 0,7.245 0.78,0 0,-5.475 c 0.105,-0.15 0.24,-0.315 0.39,-0.465 0.15,-0.15 0.33,-0.285 0.51,-0.405 0.18,-0.105 0.375,-0.195 0.585,-0.27 0.195,-0.06 0.39,-0.105 0.6,-0.105 0.51,0 0.87,0.15 1.095,0.45 0.225,0.3 0.345,0.69 0.345,1.2 l 0,5.07 0.795,0 0,-5.49 c 0.09,-0.15 0.225,-0.315 0.375,-0.465 0.15,-0.15 0.33,-0.27 0.51,-0.39 0.18,-0.12 0.375,-0.21 0.584997,-0.27 0.195,-0.06 0.39,-0.105 0.6,-0.105 0.51,0 0.87,0.15 1.11,0.45 0.225,0.3 0.345,0.69 0.345,1.2 l 0,5.07 z"
         style="font-size:15px;font-family:ProximaNovaLight;fill:#333333"
         id="path4267"
         inkscape:connector-curvature="0" /><path
         d="m 107.55039,20.18 c 0.45,0 0.84,-0.045 1.185,-0.165 0.33,-0.105 0.615,-0.255 0.84,-0.45 0.225,-0.195 0.39,-0.42 0.51,-0.69 0.12,-0.255 0.18,-0.525 0.18,-0.825 0,-0.45 -0.12,-0.825 -0.345,-1.095 -0.225,-0.27 -0.51,-0.48 -0.84,-0.645 -0.345,-0.15 -0.705,-0.285 -1.095,-0.375 -0.39,-0.09 -0.765,-0.18 -1.095,-0.285 -0.345,-0.105 -0.63,-0.24 -0.855,-0.405 -0.225,-0.15 -0.33,-0.39 -0.33,-0.69 0,-0.375 0.15,-0.69 0.465,-0.945 0.315,-0.24 0.765,-0.375 1.335,-0.375 0.48,0 0.9,0.09 1.275,0.27 0.375,0.18 0.675,0.405 0.885,0.69 l 0.435,-0.555 c -0.27,-0.285 -0.6,-0.54 -1.02,-0.75 -0.42,-0.21 -0.945,-0.315 -1.575,-0.315 -0.42,0 -0.78,0.06 -1.095,0.165 -0.33,0.105 -0.6,0.24 -0.81,0.42 -0.225,0.18 -0.39,0.405 -0.51,0.645 -0.12,0.24 -0.165,0.51 -0.165,0.78 0,0.45 0.105,0.795 0.33,1.035 0.225,0.24 0.51,0.435 0.855,0.585 0.33,0.15 0.705,0.27 1.095,0.36 0.39,0.09 0.765,0.18 1.11,0.285 0.33,0.12 0.615,0.255 0.84,0.435 0.225,0.18 0.345,0.435 0.345,0.765 0,0.42 -0.18,0.78 -0.51,1.05 -0.345,0.285 -0.825,0.42 -1.425,0.42 -0.51,0 -0.975,-0.105 -1.38,-0.315 -0.42,-0.21 -0.735,-0.45 -0.96,-0.75 l -0.465,0.57 c 0.36,0.42 0.765,0.705 1.215,0.885 0.45,0.18 0.975,0.27 1.575,0.27 z"
         style="font-size:15px;font-family:ProximaNovaLight;fill:#333333"
         id="path4269"
         inkscape:connector-curvature="0" /><path
         d="m 120.77664,20 0.78,0 0,-5.1 c 0,-0.39 -0.075,-0.735 -0.21,-1.035 -0.135,-0.3 -0.315,-0.54 -0.555,-0.735 -0.24,-0.18 -0.525,-0.33 -0.84,-0.42 -0.33,-0.09 -0.675,-0.135 -1.035,-0.135 -0.6,0 -1.125,0.105 -1.56,0.3 -0.45,0.21 -0.855,0.51 -1.23,0.915 l 0.435,0.54 c 0.33,-0.375 0.675,-0.645 1.035,-0.81 0.36,-0.165 0.78,-0.255 1.245,-0.255 0.27,0 0.51,0.045 0.75,0.105 0.24,0.075 0.435,0.18 0.615,0.33 0.18,0.15 0.315,0.315 0.42,0.525 0.09,0.21 0.15,0.435 0.15,0.705 l 0,1.47 c -0.63,-0.69 -1.44,-1.035 -2.46,-1.035 -0.33,0 -0.63,0.06 -0.93,0.15 -0.3,0.105 -0.57,0.255 -0.81,0.465 -0.24,0.21 -0.435,0.45 -0.585,0.75 -0.15,0.3 -0.21,0.645 -0.21,1.035 0,0.39 0.06,0.735 0.21,1.035 0.15,0.3 0.345,0.555 0.585,0.765 0.24,0.21 0.51,0.36 0.81,0.465 0.3,0.105 0.615,0.15 0.93,0.15 1.005,0 1.83,-0.345 2.46,-1.035 l 0,0.855 z m -2.19,-0.435 c -0.3,0 -0.57,-0.045 -0.81,-0.135 -0.24,-0.09 -0.45,-0.21 -0.63,-0.375 -0.18,-0.15 -0.315,-0.345 -0.405,-0.555 -0.09,-0.21 -0.135,-0.45 -0.135,-0.72 0,-0.51 0.18,-0.945 0.54,-1.29 0.36,-0.33 0.84,-0.51 1.44,-0.51 0.435,0 0.84,0.09 1.23,0.255 0.375,0.165 0.69,0.42 0.96,0.75 l 0,1.59 c -0.27,0.33 -0.585,0.585 -0.96,0.75 -0.39,0.165 -0.795,0.24 -1.23,0.24 z"
         style="font-size:15px;font-family:ProximaNovaLight;fill:#333333"
         id="path4271"
         inkscape:connector-curvature="0" /><path
         d="m 128.88391,20 0.78,0 0,-5.07 c 0,-0.81 -0.195,-1.41 -0.585,-1.785 -0.39,-0.375 -0.96,-0.57 -1.695,-0.57 -0.27,0 -0.525,0.045 -0.78,0.12 -0.255,0.075 -0.495,0.165 -0.72,0.285 -0.24,0.12 -0.45,0.255 -0.63,0.405 -0.195,0.15 -0.36,0.315 -0.48,0.465 l 0,-1.095 -0.78,0 0,7.245 0.78,0 0,-5.475 c 0.12,-0.15 0.255,-0.315 0.435,-0.465 0.165,-0.15 0.36,-0.285 0.57,-0.405 0.21,-0.105 0.42,-0.195 0.66,-0.27 0.225,-0.06 0.45,-0.105 0.69,-0.105 0.255,0 0.495,0.03 0.705,0.09 0.21,0.06 0.405,0.165 0.555,0.3 0.15,0.15 0.27,0.33 0.36,0.555 0.09,0.24 0.135,0.525 0.135,0.87 l 0,4.905 z"
         style="font-size:15px;font-family:ProximaNovaLight;fill:#333333"
         id="path4273"
         inkscape:connector-curvature="0" /><path
         d="m 137.41984,20 0.795,0 0,-10.005 -0.795,0 0,3.93 c -0.3,-0.42 -0.66,-0.75 -1.095,-0.99 -0.435,-0.24 -0.915,-0.36 -1.425,-0.36 -0.48,0 -0.93,0.09 -1.32,0.27 -0.39,0.18 -0.735,0.45 -1.02,0.78 -0.285,0.33 -0.51,0.735 -0.66,1.2 -0.15,0.48 -0.225,0.99 -0.225,1.56 0,0.585 0.075,1.11 0.225,1.575 0.15,0.48 0.375,0.87 0.66,1.2 0.285,0.33 0.63,0.585 1.02,0.765 0.39,0.18 0.84,0.255 1.32,0.255 0.54,0 1.02,-0.12 1.47,-0.375 0.435,-0.255 0.78,-0.57 1.05,-0.96 l 0,1.155 z m -2.385,-0.525 c -0.405,0 -0.765,-0.075 -1.08,-0.225 -0.315,-0.15 -0.585,-0.375 -0.795,-0.66 -0.21,-0.27 -0.375,-0.6 -0.495,-0.975 -0.12,-0.375 -0.165,-0.78 -0.165,-1.23 0,-0.435 0.045,-0.84 0.165,-1.23 0.12,-0.375 0.285,-0.705 0.495,-0.975 0.21,-0.27 0.48,-0.495 0.795,-0.66 0.315,-0.15 0.675,-0.24 1.08,-0.24 0.24,0 0.495,0.045 0.735,0.105 0.24,0.075 0.465,0.165 0.675,0.285 0.21,0.12 0.39,0.27 0.555,0.42 0.165,0.165 0.3,0.33 0.42,0.51 l 0,3.585 c -0.12,0.18 -0.255,0.345 -0.42,0.495 -0.165,0.15 -0.345,0.285 -0.555,0.405 -0.21,0.12 -0.435,0.225 -0.675,0.285 -0.24,0.075 -0.495,0.105 -0.735,0.105 z"
         style="font-size:15px;font-family:ProximaNovaLight;fill:#333333"
         id="path4275"
         inkscape:connector-curvature="0" /><path
         d="m 144.92102,11.615 c 0.165,0 0.3,-0.045 0.42,-0.165 0.12,-0.12 0.18,-0.255 0.18,-0.435 0,-0.165 -0.06,-0.3 -0.18,-0.42 -0.12,-0.105 -0.255,-0.165 -0.42,-0.165 -0.165,0 -0.3,0.06 -0.42,0.165 -0.12,0.12 -0.18,0.255 -0.18,0.42 0,0.18 0.06,0.315 0.18,0.435 0.12,0.12 0.255,0.165 0.42,0.165 z m -1.575,11.325 c 0.63,0 1.11,-0.165 1.455,-0.495 0.33,-0.33 0.51,-0.84 0.51,-1.53 l 0,-8.16 -0.78,0 0,8.16 c 0,0.48 -0.135,0.81 -0.375,1.02 -0.24,0.21 -0.54,0.3 -0.885,0.3 -0.24,0 -0.435,-0.045 -0.615,-0.15 -0.18,-0.09 -0.33,-0.21 -0.45,-0.345 l -0.345,0.645 c 0.21,0.195 0.435,0.33 0.66,0.42 0.225,0.09 0.495,0.135 0.825,0.135 z"
         style="font-size:15px;font-family:ProximaNovaLight;fill:#333333"
         id="path4277"
         inkscape:connector-curvature="0" /><path
         d="m 150.81367,20.18 c 0.54,0 1.02,-0.09 1.455,-0.3 0.42,-0.195 0.795,-0.465 1.095,-0.81 0.3,-0.345 0.525,-0.75 0.69,-1.215 0.165,-0.45 0.255,-0.945 0.255,-1.485 0,-0.525 -0.09,-1.02 -0.255,-1.485 -0.165,-0.45 -0.39,-0.855 -0.69,-1.2 -0.3,-0.345 -0.675,-0.615 -1.095,-0.81 -0.435,-0.195 -0.915,-0.3 -1.455,-0.3 -0.54,0 -1.02,0.105 -1.44,0.3 -0.42,0.195 -0.78,0.465 -1.08,0.81 -0.3,0.345 -0.54,0.75 -0.705,1.2 -0.165,0.465 -0.24,0.96 -0.24,1.485 0,0.54 0.075,1.035 0.24,1.485 0.165,0.465 0.405,0.87 0.705,1.215 0.3,0.345 0.66,0.615 1.08,0.81 0.42,0.21 0.9,0.3 1.44,0.3 z m 0,-0.705 c -0.42,0 -0.795,-0.075 -1.125,-0.255 -0.33,-0.165 -0.615,-0.39 -0.84,-0.69 -0.225,-0.285 -0.39,-0.615 -0.51,-0.99 -0.12,-0.36 -0.165,-0.75 -0.165,-1.17 0,-0.39 0.045,-0.78 0.165,-1.155 0.12,-0.375 0.285,-0.705 0.51,-0.99 0.225,-0.285 0.51,-0.51 0.84,-0.69 0.33,-0.165 0.705,-0.255 1.125,-0.255 0.42,0 0.81,0.09 1.14,0.255 0.33,0.18 0.6,0.405 0.825,0.69 0.225,0.285 0.39,0.615 0.51,0.99 0.12,0.375 0.18,0.765 0.18,1.155 0,0.42 -0.06,0.81 -0.18,1.17 -0.12,0.375 -0.285,0.705 -0.51,0.99 -0.225,0.3 -0.495,0.525 -0.825,0.69 -0.33,0.18 -0.72,0.255 -1.14,0.255 z"
         style="font-size:15px;font-family:ProximaNovaLight;fill:#333333"
         id="path4279"
         inkscape:connector-curvature="0" /><path
         d="m 157.08836,18.185 0,-3.585 c 0.09,-0.165 0.225,-0.33 0.405,-0.495 0.165,-0.15 0.36,-0.3 0.57,-0.42 0.21,-0.12 0.435,-0.21 0.675,-0.285 0.24,-0.075 0.48,-0.12 0.735,-0.12 0.39,0 0.75,0.09 1.065,0.24 0.315,0.165 0.585,0.39 0.81,0.66 0.21,0.27 0.375,0.6 0.495,0.975 0.105,0.39 0.165,0.795 0.165,1.23 0,0.45 -0.06,0.855 -0.165,1.23 -0.12,0.375 -0.285,0.705 -0.495,0.975 -0.225,0.285 -0.495,0.51 -0.81,0.66 -0.315,0.15 -0.675,0.225 -1.065,0.225 -0.51,0 -0.99,-0.12 -1.425,-0.375 -0.435,-0.255 -0.75,-0.555 -0.96,-0.915 z m -0.78,1.815 0.78,0 0,-1.155 c 0.255,0.39 0.6,0.705 1.05,0.96 0.435,0.255 0.93,0.375 1.47,0.375 0.48,0 0.915,-0.075 1.305,-0.255 0.39,-0.18 0.735,-0.435 1.02,-0.765 0.285,-0.33 0.51,-0.72 0.675,-1.2 0.15,-0.465 0.24,-0.99 0.24,-1.575 0,-0.57 -0.09,-1.08 -0.24,-1.56 -0.15,-0.465 -0.375,-0.87 -0.66,-1.2 -0.285,-0.33 -0.63,-0.6 -1.02,-0.78 -0.405,-0.18 -0.84,-0.27 -1.32,-0.27 -0.51,0 -0.99,0.12 -1.425,0.36 -0.45,0.24 -0.81,0.57 -1.095,0.99 l 0,-3.93 -0.78,0 0,10.005 z"
         style="font-size:15px;font-family:ProximaNovaLight;fill:#333333"
         id="path4281"
         inkscape:connector-curvature="0" /><path
         d="m 167.02305,20.18 c 0.45,0 0.84,-0.045 1.185,-0.165 0.33,-0.105 0.615,-0.255 0.84,-0.45 0.225,-0.195 0.39,-0.42 0.51,-0.69 0.12,-0.255 0.18,-0.525 0.18,-0.825 0,-0.45 -0.12,-0.825 -0.345,-1.095 -0.225,-0.27 -0.51,-0.48 -0.84,-0.645 -0.345,-0.15 -0.705,-0.285 -1.095,-0.375 -0.39,-0.09 -0.765,-0.18 -1.095,-0.285 -0.345,-0.105 -0.63,-0.24 -0.855,-0.405 -0.225,-0.15 -0.33,-0.39 -0.33,-0.69 0,-0.375 0.15,-0.69 0.465,-0.945 0.315,-0.24 0.765,-0.375 1.335,-0.375 0.48,0 0.9,0.09 1.275,0.27 0.375,0.18 0.675,0.405 0.885,0.69 l 0.435,-0.555 c -0.27,-0.285 -0.6,-0.54 -1.02,-0.75 -0.42,-0.21 -0.945,-0.315 -1.575,-0.315 -0.42,0 -0.78,0.06 -1.095,0.165 -0.33,0.105 -0.6,0.24 -0.81,0.42 -0.225,0.18 -0.39,0.405 -0.51,0.645 -0.12,0.24 -0.165,0.51 -0.165,0.78 0,0.45 0.105,0.795 0.33,1.035 0.225,0.24 0.51,0.435 0.855,0.585 0.33,0.15 0.705,0.27 1.095,0.36 0.39,0.09 0.765,0.18 1.11,0.285 0.33,0.12 0.615,0.255 0.84,0.435 0.225,0.18 0.345,0.435 0.345,0.765 0,0.42 -0.18,0.78 -0.51,1.05 -0.345,0.285 -0.825,0.42 -1.425,0.42 -0.51,0 -0.975,-0.105 -1.38,-0.315 -0.42,-0.21 -0.735,-0.45 -0.96,-0.75 l -0.465,0.57 c 0.36,0.42 0.765,0.705 1.215,0.885 0.45,0.18 0.975,0.27 1.575,0.27 z"
         style="font-size:15px;font-family:ProximaNovaLight;fill:#333333"
         id="path4283"
         inkscape:connector-curvature="0" /><path
         d="m 31.55,36.73 7.995,0 0,-0.72 -7.995,0 0,0.72 z"
         style="font-size:15px;font-family:ProximaNovaLight;fill:#333333"
         id="path4285"
         inkscape:connector-curvature="0" /><path
         d="m 47.277735,40.18 c 0.45,0 0.84,-0.045 1.185,-0.165 0.33,-0.105 0.615,-0.255 0.84,-0.45 0.225,-0.195 0.39,-0.42 0.51,-0.69 0.12,-0.255 0.18,-0.525 0.18,-0.825 0,-0.45 -0.12,-0.825 -0.345,-1.095 -0.225,-0.27 -0.51,-0.48 -0.84,-0.645 -0.345,-0.15 -0.705,-0.285 -1.095,-0.375 -0.39,-0.09 -0.765,-0.18 -1.095,-0.285 -0.345,-0.105 -0.63,-0.24 -0.855,-0.405 -0.225,-0.15 -0.33,-0.39 -0.33,-0.69 0,-0.375 0.15,-0.69 0.465,-0.945 0.315,-0.24 0.765,-0.375 1.335,-0.375 0.48,0 0.9,0.09 1.275,0.27 0.375,0.18 0.675,0.405 0.885,0.69 l 0.435,-0.555 c -0.27,-0.285 -0.6,-0.54 -1.02,-0.75 -0.42,-0.21 -0.945,-0.315 -1.575,-0.315 -0.42,0 -0.78,0.06 -1.095,0.165 -0.33,0.105 -0.6,0.24 -0.81,0.42 -0.225,0.18 -0.39,0.405 -0.51,0.645 -0.12,0.24 -0.165,0.51 -0.165,0.78 0,0.45 0.105,0.795 0.33,1.035 0.225,0.24 0.51,0.435 0.855,0.585 0.33,0.15 0.705,0.27 1.095,0.36 0.39,0.09 0.765,0.18 1.11,0.285 0.33,0.12 0.615,0.255 0.84,0.435 0.225,0.18 0.345,0.435 0.345,0.765 0,0.42 -0.18,0.78 -0.51,1.05 -0.345,0.285 -0.825,0.42 -1.425,0.42 -0.51,0 -0.975,-0.105 -1.38,-0.315 -0.42,-0.21 -0.735,-0.45 -0.96,-0.75 l -0.465,0.57 c 0.36,0.42 0.765,0.705 1.215,0.885 0.45,0.18 0.975,0.27 1.575,0.27 z"
         style="font-size:15px;font-family:ProximaNovaLight;fill:#333333"
         id="path4287"
         inkscape:connector-curvature="0" /><path
         d="m 56.8925,40 0.78,0 0,-7.245 -0.78,0 0,5.52 c -0.12,0.165 -0.27,0.315 -0.45,0.465 -0.18,0.15 -0.36,0.27 -0.57,0.375 -0.21,0.12 -0.42,0.21 -0.645,0.27 -0.24,0.06 -0.465,0.09 -0.69,0.09 -0.27,0 -0.51,-0.015 -0.72,-0.075 -0.21,-0.06 -0.405,-0.15 -0.555,-0.285 -0.15,-0.135 -0.27,-0.315 -0.36,-0.555 -0.09,-0.24 -0.12,-0.525 -0.12,-0.885 l 0,-4.92 -0.78,0 0,5.1 c 0,0.825 0.195,1.425 0.585,1.785 0.39,0.36 0.945,0.54 1.695,0.54 0.255,0 0.51,-0.03 0.765,-0.105 0.24,-0.06 0.48,-0.15 0.705,-0.27 0.225,-0.105 0.435,-0.24 0.63,-0.39 0.18,-0.15 0.36,-0.3 0.51,-0.48 l 0,1.065 z"
         style="font-size:15px;font-family:ProximaNovaLight;fill:#333333"
         id="path4289"
         inkscape:connector-curvature="0" /><path
         d="m 60.868438,38.185 0,-3.585 c 0.09,-0.165 0.225,-0.33 0.405,-0.495 0.165,-0.15 0.36,-0.3 0.57,-0.42 0.21,-0.12 0.435,-0.21 0.675,-0.285 0.24,-0.075 0.48,-0.12 0.735,-0.12 0.39,0 0.75,0.09 1.065,0.24 0.315,0.165 0.585,0.39 0.81,0.66 0.21,0.27 0.375,0.6 0.495,0.975 0.105,0.39 0.165,0.795 0.165,1.23 0,0.45 -0.06,0.855 -0.165,1.23 -0.12,0.375 -0.285,0.705 -0.495,0.975 -0.225,0.285 -0.495,0.51 -0.81,0.66 -0.315,0.15 -0.675,0.225 -1.065,0.225 -0.51,0 -0.99,-0.12 -1.425,-0.375 -0.435,-0.255 -0.75,-0.555 -0.96,-0.915 z m -0.78,1.815 0.78,0 0,-1.155 c 0.255,0.39 0.6,0.705 1.05,0.96 0.435,0.255 0.93,0.375 1.47,0.375 0.48,0 0.915,-0.075 1.305,-0.255 0.39,-0.18 0.735,-0.435 1.02,-0.765 0.285,-0.33 0.51,-0.72 0.675,-1.2 0.15,-0.465 0.24,-0.99 0.24,-1.575 0,-0.57 -0.09,-1.08 -0.24,-1.56 -0.15,-0.465 -0.375,-0.87 -0.66,-1.2 -0.285,-0.33 -0.63,-0.6 -1.02,-0.78 -0.405,-0.18 -0.84,-0.27 -1.32,-0.27 -0.51,0 -0.99,0.12 -1.425,0.36 -0.45,0.24 -0.81,0.57 -1.095,0.99 l 0,-3.93 -0.78,0 0,10.005 z"
         style="font-size:15px;font-family:ProximaNovaLight;fill:#333333"
         id="path4291"
         inkscape:connector-curvature="0" /><path
         d="m 70.803125,40.18 c 0.45,0 0.84,-0.045 1.185,-0.165 0.33,-0.105 0.615,-0.255 0.84,-0.45 0.225,-0.195 0.39,-0.42 0.51,-0.69 0.12,-0.255 0.18,-0.525 0.18,-0.825 0,-0.45 -0.12,-0.825 -0.345,-1.095 -0.225,-0.27 -0.51,-0.48 -0.84,-0.645 -0.345,-0.15 -0.705,-0.285 -1.095,-0.375 -0.39,-0.09 -0.765,-0.18 -1.095,-0.285 -0.345,-0.105 -0.63,-0.24 -0.855,-0.405 -0.225,-0.15 -0.33,-0.39 -0.33,-0.69 0,-0.375 0.15,-0.69 0.465,-0.945 0.315,-0.24 0.765,-0.375 1.335,-0.375 0.48,0 0.9,0.09 1.275,0.27 0.375,0.18 0.675,0.405 0.885,0.69 l 0.435,-0.555 c -0.27,-0.285 -0.6,-0.54 -1.02,-0.75 -0.42,-0.21 -0.945,-0.315 -1.575,-0.315 -0.42,0 -0.78,0.06 -1.095,0.165 -0.33,0.105 -0.6,0.24 -0.81,0.42 -0.225,0.18 -0.39,0.405 -0.51,0.645 -0.12,0.24 -0.165,0.51 -0.165,0.78 0,0.45 0.105,0.795 0.33,1.035 0.225,0.24 0.51,0.435 0.855,0.585 0.33,0.15 0.705,0.27 1.095,0.36 0.39,0.09 0.765,0.18 1.11,0.285 0.33,0.12 0.615,0.255 0.84,0.435 0.225,0.18 0.345,0.435 0.345,0.765 0,0.42 -0.18,0.78 -0.51,1.05 -0.345,0.285 -0.825,0.42 -1.425,0.42 -0.51,0 -0.975,-0.105 -1.38,-0.315 -0.42,-0.21 -0.735,-0.45 -0.96,-0.75 l -0.465,0.57 c 0.36,0.42 0.765,0.705 1.215,0.885 0.45,0.18 0.975,0.27 1.575,0.27 z"
         style="font-size:15px;font-family:ProximaNovaLight;fill:#333333"
         id="path4293"
         inkscape:connector-curvature="0" /><path
         d="m 78.632891,40.18 c 0.63,0 1.14,-0.105 1.53,-0.33 0.39,-0.225 0.735,-0.525 1.035,-0.915 l -0.54,-0.48 c -0.27,0.36 -0.555,0.63 -0.885,0.78 -0.33,0.165 -0.705,0.24 -1.095,0.24 -0.42,0 -0.81,-0.075 -1.14,-0.24 -0.345,-0.15 -0.63,-0.375 -0.87,-0.66 -0.24,-0.27 -0.42,-0.6 -0.54,-0.975 -0.12,-0.375 -0.18,-0.78 -0.18,-1.23 0,-0.42 0.06,-0.825 0.18,-1.215 0.12,-0.375 0.3,-0.705 0.54,-0.975 0.24,-0.27 0.525,-0.495 0.87,-0.66 0.33,-0.15 0.72,-0.24 1.14,-0.24 0.39,0 0.765,0.09 1.095,0.24 0.33,0.15 0.615,0.405 0.885,0.765 l 0.54,-0.48 c -0.3,-0.36 -0.645,-0.66 -1.035,-0.885 -0.39,-0.225 -0.9,-0.345 -1.53,-0.345 -0.54,0 -1.02,0.105 -1.455,0.3 -0.435,0.195 -0.81,0.465 -1.11,0.81 -0.3,0.345 -0.54,0.75 -0.705,1.2 -0.165,0.465 -0.24,0.96 -0.24,1.485 0,0.54 0.075,1.035 0.24,1.485 0.165,0.465 0.405,0.87 0.705,1.215 0.3,0.345 0.675,0.615 1.11,0.81 0.435,0.21 0.915,0.3 1.455,0.3 z"
         style="font-size:15px;font-family:ProximaNovaLight;fill:#333333"
         id="path4295"
         inkscape:connector-curvature="0" /><path
         d="m 82.94,40 0.78,0 0,-5.28 c 0.075,-0.15 0.195,-0.315 0.345,-0.465 0.15,-0.15 0.33,-0.3 0.525,-0.42 0.18,-0.12 0.39,-0.21 0.6,-0.285 0.21,-0.075 0.405,-0.12 0.585,-0.12 l 0.195,0 c 0.06,0 0.12,0.015 0.195,0.03 l 0,-0.855 c -0.51,0 -0.975,0.135 -1.38,0.39 -0.405,0.27 -0.765,0.6 -1.065,1.005 l 0,-1.245 -0.78,0 0,7.245 z"
         style="font-size:15px;font-family:ProximaNovaLight;fill:#333333"
         id="path4297"
         inkscape:connector-curvature="0" /><path
         d="m 88.076094,31.615 c 0.165,0 0.3,-0.045 0.42,-0.165 0.12,-0.12 0.18,-0.255 0.18,-0.435 0,-0.165 -0.06,-0.3 -0.18,-0.42 -0.12,-0.105 -0.255,-0.165 -0.42,-0.165 -0.165,0 -0.3,0.06 -0.42,0.165 -0.12,0.12 -0.18,0.255 -0.18,0.42 0,0.18 0.06,0.315 0.18,0.435 0.12,0.12 0.255,0.165 0.42,0.165 z m -0.39,8.385 0.78,0 0,-7.245 -0.78,0 0,7.245 z"
         style="font-size:15px;font-family:ProximaNovaLight;fill:#333333"
         id="path4299"
         inkscape:connector-curvature="0" /><path
         d="m 91.68875,38.185 0,-3.585 c 0.09,-0.165 0.225,-0.33 0.405,-0.495 0.165,-0.15 0.36,-0.3 0.57,-0.42 0.21,-0.12 0.435,-0.21 0.675,-0.285 0.24,-0.075 0.48,-0.12 0.735,-0.12 0.39,0 0.75,0.09 1.065,0.24 0.315,0.165 0.585,0.39 0.81,0.66 0.21,0.27 0.375,0.6 0.495,0.975 0.105,0.39 0.165,0.795 0.165,1.23 0,0.45 -0.06,0.855 -0.165,1.23 -0.12,0.375 -0.285,0.705 -0.495,0.975 -0.225,0.285 -0.495,0.51 -0.81,0.66 -0.315,0.15 -0.675,0.225 -1.065,0.225 -0.51,0 -0.99,-0.12 -1.425,-0.375 -0.435,-0.255 -0.75,-0.555 -0.96,-0.915 z m -0.78,1.815 0.78,0 0,-1.155 c 0.255,0.39 0.6,0.705 1.05,0.96 0.435,0.255 0.93,0.375 1.47,0.375 0.48,0 0.915,-0.075 1.305,-0.255 0.39,-0.18 0.735,-0.435 1.02,-0.765 0.285,-0.33 0.51,-0.72 0.675,-1.2 0.15,-0.465 0.24,-0.99 0.24,-1.575 0,-0.57 -0.09,-1.08 -0.24,-1.56 -0.15,-0.465 -0.375,-0.87 -0.66,-1.2 -0.285,-0.33 -0.63,-0.6 -1.02,-0.78 -0.405,-0.18 -0.84,-0.27 -1.32,-0.27 -0.51,0 -0.99,0.12 -1.425,0.36 -0.45,0.24 -0.81,0.57 -1.095,0.99 l 0,-3.93 -0.78,0 0,10.005 z"
         style="font-size:15px;font-family:ProximaNovaLight;fill:#333333"
         id="path4301"
         inkscape:connector-curvature="0" /><path
         d="m 102.67344,40.18 c 0.6,0 1.125,-0.09 1.59,-0.3 0.465,-0.195 0.885,-0.48 1.245,-0.87 l -0.405,-0.51 c -0.315,0.33 -0.675,0.585 -1.08,0.75 -0.405,0.18 -0.84,0.255 -1.29,0.255 -0.435,0 -0.825,-0.075 -1.155,-0.225 -0.345,-0.15 -0.645,-0.345 -0.885,-0.615 -0.24,-0.27 -0.435,-0.57 -0.57,-0.93 -0.135002,-0.345 -0.210002,-0.72 -0.225002,-1.11 l 6.060002,0 0,-0.21 c 0,-0.51 -0.075,-1.005 -0.225,-1.485 -0.15,-0.465 -0.375,-0.87 -0.66,-1.215 -0.3,-0.345 -0.66,-0.615 -1.08,-0.825 -0.42,-0.21 -0.915,-0.315 -1.455,-0.315 -0.51,0 -0.975,0.105 -1.395,0.3 -0.42,0.21 -0.795,0.48 -1.095,0.81 -0.315002,0.345 -0.555002,0.75 -0.735002,1.215 -0.18,0.465 -0.255,0.96 -0.255,1.47 0,0.57 0.09,1.08 0.27,1.545 0.18,0.465 0.42,0.87 0.750002,1.2 0.315,0.345 0.69,0.615 1.14,0.795 0.435,0.18 0.915,0.27 1.455,0.27 z m 2.49,-4.17 -5.265002,0 c 0,-0.3 0.06,-0.63 0.180002,-0.96 0.12,-0.33 0.285,-0.615 0.51,-0.885 0.21,-0.27 0.48,-0.48 0.81,-0.66 0.315,-0.165 0.69,-0.255 1.125,-0.255 0.45,0 0.84,0.09 1.17,0.255 0.33,0.18 0.6,0.39 0.825,0.66 0.21,0.27 0.375,0.57 0.48,0.9 0.105,0.33 0.165,0.645 0.165,0.945 z"
         style="font-size:15px;font-family:ProximaNovaLight;fill:#333333"
         id="path4303"
         inkscape:connector-curvature="0" /><path
         d="m 113.43102,40.18 c 0.3,0 0.54,-0.03 0.735,-0.12 0.18,-0.075 0.345,-0.18 0.495,-0.33 l -0.3,-0.6 c -0.09,0.09 -0.195,0.18 -0.345,0.24 -0.15,0.075 -0.3,0.105 -0.465,0.105 -0.27,0 -0.45,-0.09 -0.57,-0.27 -0.12,-0.18 -0.18,-0.42 -0.18,-0.72 l 0,-5.04 1.47,0 0,-0.69 -1.47,0 0,-1.98 -0.795,0 0,1.98 -1.2,0 0,0.69 1.2,0 0,5.16 c 0,0.51 0.105,0.9 0.345,1.17 0.24,0.27 0.6,0.405 1.08,0.405 z"
         style="font-size:15px;font-family:ProximaNovaLight;fill:#333333"
         id="path4305"
         inkscape:connector-curvature="0" /><path
         d="m 119.04688,40.18 c 0.54,0 1.02,-0.09 1.455,-0.3 0.42,-0.195 0.795,-0.465 1.095,-0.81 0.3,-0.345 0.525,-0.75 0.69,-1.215 0.165,-0.45 0.255,-0.945 0.255,-1.485 0,-0.525 -0.09,-1.02 -0.255,-1.485 -0.165,-0.45 -0.39,-0.855 -0.69,-1.2 -0.3,-0.345 -0.675,-0.615 -1.095,-0.81 -0.435,-0.195 -0.915,-0.3 -1.455,-0.3 -0.54,0 -1.02,0.105 -1.44,0.3 -0.42,0.195 -0.78,0.465 -1.08,0.81 -0.3,0.345 -0.54,0.75 -0.705,1.2 -0.165,0.465 -0.24,0.96 -0.24,1.485 0,0.54 0.075,1.035 0.24,1.485 0.165,0.465 0.405,0.87 0.705,1.215 0.3,0.345 0.66,0.615 1.08,0.81 0.42,0.21 0.9,0.3 1.44,0.3 z m 0,-0.705 c -0.42,0 -0.795,-0.075 -1.125,-0.255 -0.33,-0.165 -0.615,-0.39 -0.84,-0.69 -0.225,-0.285 -0.39,-0.615 -0.51,-0.99 -0.12,-0.36 -0.165,-0.75 -0.165,-1.17 0,-0.39 0.045,-0.78 0.165,-1.155 0.12,-0.375 0.285,-0.705 0.51,-0.99 0.225,-0.285 0.51,-0.51 0.84,-0.69 0.33,-0.165 0.705,-0.255 1.125,-0.255 0.42,0 0.81,0.09 1.14,0.255 0.33,0.18 0.6,0.405 0.825,0.69 0.225,0.285 0.39,0.615 0.51,0.99 0.12,0.375 0.18,0.765 0.18,1.155 0,0.42 -0.06,0.81 -0.18,1.17 -0.12,0.375 -0.285,0.705 -0.51,0.99 -0.225,0.3 -0.495,0.525 -0.825,0.69 -0.33,0.18 -0.72,0.255 -1.14,0.255 z"
         style="font-size:15px;font-family:ProximaNovaLight;fill:#333333"
         id="path4307"
         inkscape:connector-curvature="0" /><path
         d="m 130.01305,40.18 c 0.3,0 0.54,-0.03 0.735,-0.12 0.18,-0.075 0.345,-0.18 0.495,-0.33 l -0.3,-0.6 c -0.09,0.09 -0.195,0.18 -0.345,0.24 -0.15,0.075 -0.3,0.105 -0.465,0.105 -0.27,0 -0.45,-0.09 -0.57,-0.27 -0.12,-0.18 -0.18,-0.42 -0.18,-0.72 l 0,-5.04 1.47,0 0,-0.69 -1.47,0 0,-1.98 -0.795,0 0,1.98 -1.2,0 0,0.69 1.2,0 0,5.16 c 0,0.51 0.105,0.9 0.345,1.17 0.24,0.27 0.6,0.405 1.08,0.405 z"
         style="font-size:15px;font-family:ProximaNovaLight;fill:#333333"
         id="path4309"
         inkscape:connector-curvature="0" /><path
         d="m 137.45891,40 0.78,0 0,-5.1 c 0,-0.81 -0.195,-1.41 -0.585,-1.77 -0.39,-0.36 -0.96,-0.555 -1.695,-0.555 -0.27,0 -0.525,0.045 -0.78,0.12 -0.255,0.075 -0.495,0.165 -0.72,0.285 -0.24,0.12 -0.45,0.255 -0.63,0.405 -0.195,0.15 -0.36,0.315 -0.48,0.465 l 0,-3.855 -0.78,0 0,10.005 0.78,0 0,-5.475 c 0.12,-0.15 0.255,-0.315 0.435,-0.465 0.165,-0.15 0.36,-0.285 0.57,-0.405 0.21,-0.105 0.42,-0.195 0.66,-0.27 0.225,-0.06 0.45,-0.105 0.69,-0.105 0.255,0 0.495,0.03 0.705,0.09 0.21,0.06 0.405,0.15 0.555,0.285 0.15,0.135 0.27,0.315 0.36,0.54 0.09,0.24 0.135,0.525 0.135,0.87 l 0,4.935 z"
         style="font-size:15px;font-family:ProximaNovaLight;fill:#333333"
         id="path4311"
         inkscape:connector-curvature="0" /><path
         d="m 143.86484,40.18 c 0.6,0 1.125,-0.09 1.59,-0.3 0.465,-0.195 0.885,-0.48 1.245,-0.87 l -0.405,-0.51 c -0.315,0.33 -0.675,0.585 -1.08,0.75 -0.405,0.18 -0.84,0.255 -1.29,0.255 -0.435,0 -0.825,-0.075 -1.155,-0.225 -0.345,-0.15 -0.645,-0.345 -0.885,-0.615 -0.24,-0.27 -0.435,-0.57 -0.57,-0.93 -0.135,-0.345 -0.21,-0.72 -0.225,-1.11 l 6.06,0 0,-0.21 c 0,-0.51 -0.075,-1.005 -0.225,-1.485 -0.15,-0.465 -0.375,-0.87 -0.66,-1.215 -0.3,-0.345 -0.66,-0.615 -1.08,-0.825 -0.42,-0.21 -0.915,-0.315 -1.455,-0.315 -0.51,0 -0.975,0.105 -1.395,0.3 -0.42,0.21 -0.795,0.48 -1.095,0.81 -0.315,0.345 -0.555,0.75 -0.735,1.215 -0.18,0.465 -0.255,0.96 -0.255,1.47 0,0.57 0.09,1.08 0.27,1.545 0.18,0.465 0.42,0.87 0.75,1.2 0.315,0.345 0.69,0.615 1.14,0.795 0.435,0.18 0.915,0.27 1.455,0.27 z m 2.49,-4.17 -5.265,0 c 0,-0.3 0.06,-0.63 0.18,-0.96 0.12,-0.33 0.285,-0.615 0.51,-0.885 0.21,-0.27 0.48,-0.48 0.81,-0.66 0.315,-0.165 0.69,-0.255 1.125,-0.255 0.45,0 0.84,0.09 1.17,0.255 0.33,0.18 0.6,0.39 0.825,0.66 0.21,0.27 0.375,0.57 0.48,0.9 0.105,0.33 0.165,0.645 0.165,0.945 z"
         style="font-size:15px;font-family:ProximaNovaLight;fill:#333333"
         id="path4313"
         inkscape:connector-curvature="0" /><path
         d="m 65.939998,60 0.78,0 0,-5.22 c 0,-1.47 -0.66,-2.205 -1.98,-2.205 -0.27,0 -0.51,0.045 -0.75,0.12 -0.24,0.09 -0.465,0.195 -0.675,0.315 -0.21,0.12 -0.405,0.27 -0.57,0.435 -0.18,0.165 -0.315,0.33 -0.405,0.495 -0.06,-0.18 -0.135,-0.345 -0.225,-0.51 -0.09,-0.15 -0.225,-0.3 -0.375,-0.435 -0.165,-0.12 -0.36,-0.225 -0.57,-0.3 -0.21,-0.075 -0.465,-0.12 -0.735,-0.12 -0.27,0 -0.525,0.045 -0.765,0.135 -0.255,0.09 -0.48,0.21 -0.69,0.33 -0.21,0.135 -0.405,0.27 -0.555,0.42 -0.15,0.15 -0.27,0.27 -0.33,0.39 l 0,-1.095 -0.78,0 0,7.245 0.78,0 0,-5.475 c 0.105,-0.15 0.24,-0.315 0.39,-0.465 0.15,-0.15 0.33,-0.285 0.51,-0.405 0.18,-0.105 0.375,-0.195 0.585,-0.27 0.195,-0.06 0.39,-0.105 0.6,-0.105 0.51,0 0.87,0.15 1.095,0.45 0.225,0.3 0.345,0.69 0.345,1.2 l 0,5.07 0.795,0 0,-5.49 c 0.09,-0.15 0.225,-0.315 0.375,-0.465 0.15,-0.15 0.33,-0.27 0.51,-0.39 0.18,-0.12 0.375,-0.21 0.585,-0.27 0.195,-0.06 0.39,-0.105 0.6,-0.105 0.51,0 0.87,0.15 1.11,0.45 0.225,0.3 0.345,0.69 0.345,1.2 l 0,5.07 z"
         style="font-size:15px;font-family:ProximaNovaLight;fill:#333333"
         id="path4315"
         inkscape:connector-curvature="0" /><path
         d="m 73.755936,60 0.78,0 0,-5.1 c 0,-0.39 -0.075,-0.735 -0.21,-1.035 -0.135,-0.3 -0.315,-0.54 -0.555,-0.735 -0.24,-0.18 -0.525,-0.33 -0.84,-0.42 -0.33,-0.09 -0.675,-0.135 -1.035,-0.135 -0.6,0 -1.125,0.105 -1.56,0.3 -0.45,0.21 -0.855,0.51 -1.23,0.915 l 0.435,0.54 c 0.33,-0.375 0.675,-0.645 1.035,-0.81 0.36,-0.165 0.78,-0.255 1.245,-0.255 0.27,0 0.51,0.045 0.75,0.105 0.24,0.075 0.435,0.18 0.615,0.33 0.18,0.15 0.315,0.315 0.42,0.525 0.09,0.21 0.15,0.435 0.15,0.705 l 0,1.47 c -0.63,-0.69 -1.44,-1.035 -2.46,-1.035 -0.33,0 -0.63,0.06 -0.93,0.15 -0.3,0.105 -0.57,0.255 -0.81,0.465 -0.24,0.21 -0.435,0.45 -0.585,0.75 -0.15,0.3 -0.21,0.645 -0.21,1.035 0,0.39 0.06,0.735 0.21,1.035 0.15,0.3 0.345,0.555 0.585,0.765 0.24,0.21 0.51,0.36 0.81,0.465 0.3,0.105 0.615,0.15 0.93,0.15 1.005,0 1.83,-0.345 2.46,-1.035 l 0,0.855 z m -2.19,-0.435 c -0.3,0 -0.57,-0.045 -0.81,-0.135 -0.24,-0.09 -0.45,-0.21 -0.63,-0.375 -0.18,-0.15 -0.315,-0.345 -0.405,-0.555 -0.09,-0.21 -0.135,-0.45 -0.135,-0.72 0,-0.51 0.18,-0.945 0.54,-1.29 0.36,-0.33 0.84,-0.51 1.44,-0.51 0.435,0 0.84,0.09 1.23,0.255 0.375,0.165 0.69,0.42 0.96,0.75 l 0,1.59 c -0.27,0.33 -0.585,0.585 -0.96,0.75 -0.39,0.165 -0.795,0.24 -1.23,0.24 z"
         style="font-size:15px;font-family:ProximaNovaLight;fill:#333333"
         id="path4317"
         inkscape:connector-curvature="0" /><path
         d="m 77.363202,51.615 c 0.165,0 0.3,-0.045 0.42,-0.165 0.12,-0.12 0.18,-0.255 0.18,-0.435 0,-0.165 -0.06,-0.3 -0.18,-0.42 -0.12,-0.105 -0.255,-0.165 -0.42,-0.165 -0.165,0 -0.3,0.06 -0.42,0.165 -0.12,0.12 -0.18,0.255 -0.18,0.42 0,0.18 0.06,0.315 0.18,0.435 0.12,0.12 0.255,0.165 0.42,0.165 z m -0.39,8.385 0.78,0 0,-7.245 -0.78,0 0,7.245 z"
         style="font-size:15px;font-family:ProximaNovaLight;fill:#333333"
         id="path4319"
         inkscape:connector-curvature="0" /><path
         d="m 80.195858,60 0.78,0 0,-10.005 -0.78,0 0,10.005 z"
         style="font-size:15px;font-family:ProximaNovaLight;fill:#333333"
         id="path4321"
         inkscape:connector-curvature="0" /><path
         d="m 83.808514,51.615 c 0.165,0 0.3,-0.045 0.42,-0.165 0.12,-0.12 0.18,-0.255 0.18,-0.435 0,-0.165 -0.06,-0.3 -0.18,-0.42 -0.12,-0.105 -0.255,-0.165 -0.42,-0.165 -0.165,0 -0.3,0.06 -0.42,0.165 -0.12,0.12 -0.18,0.255 -0.18,0.42 0,0.18 0.06,0.315 0.18,0.435 0.12,0.12 0.255,0.165 0.42,0.165 z m -0.39,8.385 0.78,0 0,-7.245 -0.78,0 0,7.245 z"
         style="font-size:15px;font-family:ProximaNovaLight;fill:#333333"
         id="path4323"
         inkscape:connector-curvature="0" /><path
         d="m 91.53117,60 0.78,0 0,-5.07 c 0,-0.81 -0.195,-1.41 -0.585,-1.785 -0.39,-0.375 -0.96,-0.57 -1.695,-0.57 -0.27,0 -0.525,0.045 -0.78,0.12 -0.255,0.075 -0.495,0.165 -0.72,0.285 -0.24,0.12 -0.45,0.255 -0.63,0.405 -0.195,0.15 -0.36,0.315 -0.48,0.465 l 0,-1.095 -0.78,0 0,7.245 0.78,0 0,-5.475 c 0.12,-0.15 0.255,-0.315 0.435,-0.465 0.165,-0.15 0.36,-0.285 0.57,-0.405 0.21,-0.105 0.42,-0.195 0.66,-0.27 0.225,-0.06 0.45,-0.105 0.69,-0.105 0.255,0 0.495,0.03 0.705,0.09 0.21,0.06 0.405,0.165 0.555,0.3 0.15,0.15 0.27,0.33 0.36,0.555 0.09,0.24 0.135,0.525 0.135,0.87 l 0,4.905 z"
         style="font-size:15px;font-family:ProximaNovaLight;fill:#333333"
         id="path4325"
         inkscape:connector-curvature="0" /><path
         d="m 97.607108,62.94 c 0.435,0 0.855,-0.045 1.245,-0.15 0.39,-0.105 0.735,-0.285 1.035,-0.525 0.300002,-0.24 0.525002,-0.54 0.705002,-0.93 0.18,-0.375 0.27,-0.84 0.27,-1.395 l 0,-7.185 -0.795,0 0,1.17 c -0.300002,-0.42 -0.660002,-0.75 -1.095002,-0.99 -0.435,-0.24 -0.915,-0.36 -1.425,-0.36 -0.48,0 -0.93,0.09 -1.32,0.27 -0.39,0.18 -0.735,0.435 -1.02,0.765 -0.285,0.33 -0.51,0.735 -0.66,1.2 -0.15,0.48 -0.225,0.99 -0.225,1.56 0,0.585 0.075,1.11 0.225,1.575 0.15,0.465 0.375,0.855 0.66,1.185 0.285,0.33 0.63,0.585 1.02,0.765 0.39,0.18 0.84,0.255 1.32,0.255 0.54,0 1.02,-0.12 1.47,-0.39 0.435,-0.27 0.78,-0.585 1.050002,-0.975 l 0,1.155 c 0,0.42 -0.075,0.765 -0.210002,1.05 -0.135,0.3 -0.315,0.54 -0.54,0.72 -0.225,0.18 -0.48,0.315 -0.78,0.405 -0.3,0.09 -0.6,0.12 -0.93,0.12 -0.555,0 -1.02,-0.075 -1.38,-0.225 -0.375,-0.15 -0.72,-0.405 -1.035,-0.795 l -0.45,0.63 c 0.21,0.225 0.42,0.405 0.63,0.54 0.21,0.15 0.42,0.255 0.66,0.345 0.225,0.09 0.465,0.135 0.72,0.165 0.255,0.03 0.54,0.045 0.855,0.045 z m 0.075,-3.495 c -0.405,0 -0.765,-0.075 -1.08,-0.225 -0.315,-0.15 -0.585,-0.375 -0.795,-0.645 -0.21,-0.27 -0.375,-0.6 -0.495,-0.975 -0.12,-0.375 -0.165,-0.78 -0.165,-1.23 0,-0.435 0.045,-0.84 0.165,-1.215 0.12,-0.375 0.285,-0.705 0.495,-0.99 0.21,-0.27 0.48,-0.495 0.795,-0.645 0.315,-0.15 0.675,-0.24 1.08,-0.24 0.24,0 0.495,0.045 0.735,0.105 0.24,0.075 0.465,0.165 0.675,0.285 0.21,0.12 0.39,0.27 0.555,0.42 0.165,0.165 0.3,0.33 0.420002,0.51 l 0,3.525 c -0.120002,0.18 -0.255002,0.36 -0.420002,0.51 -0.165,0.165 -0.345,0.3 -0.555,0.42 -0.21,0.12 -0.435,0.225 -0.675,0.285 -0.24,0.075 -0.495,0.105 -0.735,0.105 z"
         style="font-size:15px;font-family:ProximaNovaLight;fill:#333333"
         id="path4327"
         inkscape:connector-curvature="0" /><path
         d="m 107.17828,60 0.78,0 0,-10.005 -0.78,0 0,10.005 z"
         style="font-size:15px;font-family:ProximaNovaLight;fill:#333333"
         id="path4329"
         inkscape:connector-curvature="0" /><path
         d="m 110.79094,51.615 c 0.165,0 0.3,-0.045 0.42,-0.165 0.12,-0.12 0.18,-0.255 0.18,-0.435 0,-0.165 -0.06,-0.3 -0.18,-0.42 -0.12,-0.105 -0.255,-0.165 -0.42,-0.165 -0.165,0 -0.3,0.06 -0.42,0.165 -0.12,0.12 -0.18,0.255 -0.18,0.42 0,0.18 0.06,0.315 0.18,0.435 0.12,0.12 0.255,0.165 0.42,0.165 z m -0.39,8.385 0.78,0 0,-7.245 -0.78,0 0,7.245 z"
         style="font-size:15px;font-family:ProximaNovaLight;fill:#333333"
         id="path4331"
         inkscape:connector-curvature="0" /><path
         d="m 115.78359,60.18 c 0.45,0 0.84,-0.045 1.185,-0.165 0.33,-0.105 0.615,-0.255 0.84,-0.45 0.225,-0.195 0.39,-0.42 0.51,-0.69 0.12,-0.255 0.18,-0.525 0.18,-0.825 0,-0.45 -0.12,-0.825 -0.345,-1.095 -0.225,-0.27 -0.51,-0.48 -0.84,-0.645 -0.345,-0.15 -0.705,-0.285 -1.095,-0.375 -0.39,-0.09 -0.765,-0.18 -1.095,-0.285 -0.345,-0.105 -0.63,-0.24 -0.855,-0.405 -0.225,-0.15 -0.33,-0.39 -0.33,-0.69 0,-0.375 0.15,-0.69 0.465,-0.945 0.315,-0.24 0.765,-0.375 1.335,-0.375 0.48,0 0.9,0.09 1.275,0.27 0.375,0.18 0.675,0.405 0.885,0.69 l 0.435,-0.555 c -0.27,-0.285 -0.6,-0.54 -1.02,-0.75 -0.42,-0.21 -0.945,-0.315 -1.575,-0.315 -0.42,0 -0.78,0.06 -1.095,0.165 -0.33,0.105 -0.6,0.24 -0.81,0.42 -0.225,0.18 -0.39,0.405 -0.51,0.645 -0.12,0.24 -0.165,0.51 -0.165,0.78 0,0.45 0.105,0.795 0.33,1.035 0.225,0.24 0.51,0.435 0.855,0.585 0.33,0.15 0.705,0.27 1.095,0.36 0.39,0.09 0.765,0.18 1.11,0.285 0.33,0.12 0.615,0.255 0.84,0.435 0.225,0.18 0.345,0.435 0.345,0.765 0,0.42 -0.18,0.78 -0.51,1.05 -0.345,0.285 -0.825,0.42 -1.425,0.42 -0.51,0 -0.975,-0.105 -1.38,-0.315 -0.42,-0.21 -0.735,-0.45 -0.96,-0.75 l -0.465,0.57 c 0.36,0.42 0.765,0.705 1.215,0.885 0.45,0.18 0.975,0.27 1.575,0.27 z"
         style="font-size:15px;font-family:ProximaNovaLight;fill:#333333"
         id="path4333"
         inkscape:connector-curvature="0" /><path
         d="m 122.08336,60.18 c 0.3,0 0.54,-0.03 0.735,-0.12 0.18,-0.075 0.345,-0.18 0.495,-0.33 l -0.3,-0.6 c -0.09,0.09 -0.195,0.18 -0.345,0.24 -0.15,0.075 -0.3,0.105 -0.465,0.105 -0.27,0 -0.45,-0.09 -0.57,-0.27 -0.12,-0.18 -0.18,-0.42 -0.18,-0.72 l 0,-5.04 1.47,0 0,-0.69 -1.47,0 0,-1.98 -0.795,0 0,1.98 -1.2,0 0,0.69 1.2,0 0,5.16 c 0,0.51 0.105,0.9 0.345,1.17 0.24,0.27 0.6,0.405 1.08,0.405 z"
         style="font-size:15px;font-family:ProximaNovaLight;fill:#333333"
         id="path4335"
         inkscape:connector-curvature="0" /><path
         d="m 125.07422,60.135 c 0.18,0 0.33,-0.06 0.465,-0.195 0.12,-0.12 0.195,-0.285 0.195,-0.465 0,-0.165 -0.075,-0.315 -0.195,-0.45 -0.135,-0.12 -0.285,-0.195 -0.465,-0.195 -0.18,0 -0.345,0.075 -0.48,0.195 -0.135,0.135 -0.195,0.285 -0.195,0.45 0,0.18 0.06,0.345 0.195,0.465 0.135,0.135 0.3,0.195 0.48,0.195 z"
         style="font-size:15px;font-family:ProximaNovaLight;fill:#333333"
         id="path4337"
         inkscape:connector-curvature="0" /></g><line
       fill="none"
       stroke="#333333"
       stroke-miterlimit="10"
       x1="36.5"
       y1="130.8"
       x2="229.4"
       y2="130.8"
       id="line27" /><g
       id="g29"><path
         fill="#333333"
         d="M118.4,53c-6.9,0-12.4,5.6-12.4,12.4c0,6.9,5.6,12.4,12.4,12.4c6.9,0,12.4-5.6,12.4-12.4    C130.8,58.6,125.3,53,118.4,53z M118.4,77.1c-6.5,0-11.7-5.3-11.7-11.7c0-6.5,5.3-11.7,11.7-11.7c6.5,0,11.7,5.3,11.7,11.7    C130.1,71.9,124.9,77.1,118.4,77.1z"
         id="path31" /><path
         fill="#333333"
         d="M118.4,56c-5.2,0-9.4,4.2-9.4,9.4s4.2,9.4,9.4,9.4c5.2,0,9.4-4.2,9.4-9.4S123.6,56,118.4,56z M118.4,74.1    c-4.8,0-8.7-3.9-8.7-8.7c0-4.8,3.9-8.7,8.7-8.7c4.8,0,8.7,3.9,8.7,8.7C127.1,70.2,123.2,74.1,118.4,74.1z"
         id="path33" /><path
         fill="#333333"
         d="M118.4,54.5c-6,0-10.9,4.9-10.9,10.9s4.9,10.9,10.9,10.9c6,0,10.9-4.9,10.9-10.9S124.4,54.5,118.4,54.5z     M118.4,75.6c-5.6,0-10.1-4.6-10.1-10.1c0-5.6,4.6-10.1,10.1-10.1c5.6,0,10.1,4.6,10.1,10.1C128.5,71,124,75.6,118.4,75.6z"
         id="path35" /><path
         fill="#333333"
         d="M147.7,53c-6.9,0-12.4,5.6-12.4,12.4c0,6.9,5.6,12.4,12.4,12.4c6.9,0,12.4-5.6,12.4-12.4    C160.1,58.6,154.6,53,147.7,53z M147.7,77.1c-6.5,0-11.7-5.3-11.7-11.7c0-6.5,5.3-11.7,11.7-11.7c6.5,0,11.7,5.3,11.7,11.7    C159.4,71.9,154.2,77.1,147.7,77.1z"
         id="path37" /><path
         fill="#333333"
         d="M147.7,56c-5.2,0-9.4,4.2-9.4,9.4s4.2,9.4,9.4,9.4c5.2,0,9.4-4.2,9.4-9.4S152.9,56,147.7,56z M147.7,74.1    c-4.8,0-8.7-3.9-8.7-8.7c0-4.8,3.9-8.7,8.7-8.7c4.8,0,8.7,3.9,8.7,8.7C156.4,70.2,152.5,74.1,147.7,74.1z"
         id="path39" /><path
         fill="#333333"
         d="M147.7,54.5c-6,0-10.9,4.9-10.9,10.9s4.9,10.9,10.9,10.9c6,0,10.9-4.9,10.9-10.9S153.7,54.5,147.7,54.5z     M147.7,75.6c-5.6,0-10.1-4.6-10.1-10.1c0-5.6,4.6-10.1,10.1-10.1c5.6,0,10.1,4.6,10.1,10.1C157.8,71,153.3,75.6,147.7,75.6z"
         id="path41" /><path
         fill="#333333"
         d="M175,53h-5.2h-0.4h-0.4v24.9h0.4h0.4h5.2c6.9,0,12.4-5.6,12.4-12.4C187.4,58.6,181.8,53,175,53z M175,74.8    c5.2,0,9.4-4.2,9.4-9.4S180.2,56,175,56h-5.2v-0.7h5.2c5.6,0,10.1,4.6,10.1,10.1c0,5.6-4.6,10.1-10.1,10.1h-5.2v-0.7H175z     M169.8,74.1V56.7h5.2c4.8,0,8.7,3.9,8.7,8.7c0,4.8-3.9,8.7-8.7,8.7H169.8z M175,77.1h-5.2v-0.8h5.2c6,0,10.9-4.9,10.9-10.9    S181,54.5,175,54.5h-5.2v-0.8h5.2c6.5,0,11.7,5.3,11.7,11.7C186.7,71.9,181.4,77.1,175,77.1z"
         id="path43" /><rect
         x="166.2"
         y="53"
         fill="#333333"
         width="0.7"
         height="24.9"
         id="rect45" /><rect
         x="167.6"
         y="53"
         fill="#333333"
         width="0.7"
         height="24.9"
         id="rect47" /><path
         fill="#333333"
         d="M90.7,53c-6.9,0-12.4,5.6-12.4,12.4c0,6.9,5.6,12.4,12.4,12.4c2.3,0,4.4-0.6,6.2-1.7    c0.2-0.1,0.5-0.3,0.7-0.5v-0.9v-1.1v-1v-1v-1.1v-1.9v-0.6v-0.7v0h-0.7h-7.4v0.7h7.4v0v0.6v2.7c-1.6,1.6-3.8,2.6-6.2,2.6    c-4.8,0-8.7-3.9-8.7-8.7c0-4.8,3.9-8.7,8.7-8.7c2.7,0,5.1,1.2,6.7,3.2l0.6-0.4c-1.7-2.1-4.4-3.5-7.3-3.5c-5.2,0-9.4,4.2-9.4,9.4    s4.2,9.4,9.4,9.4c2.4,0,4.6-0.9,6.2-2.4v0.9c-1.7,1.3-3.9,2.1-6.2,2.1c-5.6,0-10.1-4.6-10.1-10.1c0-5.6,4.6-10.1,10.1-10.1    c3.2,0,6.1,1.5,8,3.9l0.6-0.4c-2-2.6-5.1-4.2-8.6-4.2c-6,0-10.9,4.9-10.9,10.9s4.9,10.9,10.9,10.9c2.3,0,4.5-0.7,6.2-2v1    c-1.8,1.1-3.9,1.8-6.2,1.8c-6.5,0-11.7-5.3-11.7-11.7c0-6.5,5.3-11.7,11.7-11.7c3.8,0,7.2,1.8,9.3,4.6l0.6-0.4    C98.4,54.9,94.8,53,90.7,53z"
         id="path49" /><path
         fill="#333333"
         d="M89.5,65.2h7.4h0.7h0.7h0.7h0.7v0V66v0.7v0.7v0.7v0.6v4v1.1c0.3-0.3,0.5-0.6,0.7-0.9v-1.3v-3v-0.6v-0.7    v-0.7V66v-0.7v-0.7v0v0h-11V65.2z"
         id="path51" /><path
         fill="#333333"
         d="M97.7,66h-0.7h-7.4v0.7h7.4h0.7h0.7v0v0.7v0.7v0.6v5.5v0.9c0.2-0.2,0.5-0.4,0.7-0.6v-1v-4.8v-0.6v-0.7    v-0.7V66v0h-0.7H97.7z"
         id="path53" /></g></g></svg>