<?xml version="1.0" encoding="UTF-8" standalone="no"?>
<!-- Generator: Adobe Illustrator 18.1.0, SVG Export Plug-In . SVG Version: 6.00 Build 0)  -->

<svg
   xmlns:dc="http://purl.org/dc/elements/1.1/"
   xmlns:cc="http://creativecommons.org/ns#"
   xmlns:rdf="http://www.w3.org/1999/02/22-rdf-syntax-ns#"
   xmlns:svg="http://www.w3.org/2000/svg"
   xmlns="http://www.w3.org/2000/svg"
   xmlns:sodipodi="http://sodipodi.sourceforge.net/DTD/sodipodi-0.dtd"
   xmlns:inkscape="http://www.inkscape.org/namespaces/inkscape"
   version="1.1"
   id="Layer_1"
   sodipodi:docname="stamp.svg"
   inkscape:version="0.48.5 r10040"
   x="0px"
   y="0px"
   viewBox="0 0 265 265"
   enable-background="new 0 0 265 265"
   xml:space="preserve"
   width="100%"
   height="100%"><metadata
     id="metadata31"><rdf:RDF><cc:Work
         rdf:about=""><dc:format>image/svg+xml</dc:format><dc:type
           rdf:resource="http://purl.org/dc/dcmitype/StillImage" /></cc:Work></rdf:RDF></metadata><defs
     id="defs29" /><sodipodi:namedview
     inkscape:cy="131.275"
     inkscape:cx="133.5"
     inkscape:zoom="0.8988764"
     showgrid="false"
     pagecolor="#ffffff"
     gridtolerance="10"
     bordercolor="#666666"
     objecttolerance="10"
     borderopacity="1"
     guidetolerance="10"
     id="namedview3013"
     inkscape:current-layer="Layer_1"
     inkscape:window-maximized="0"
     inkscape:window-y="34"
     inkscape:window-x="10"
     inkscape:window-height="472"
     inkscape:window-width="1250"
     inkscape:pageshadow="2"
     inkscape:pageopacity="0" /><g
     id="g3"><g
       id="circle5"><path
         fill="#FFFFFF"
         d="M132.5,261.9c-71.3,0-129.4-58.1-129.4-129.4S61.2,3.1,132.5,3.1s129.4,58.1,129.4,129.4    S203.8,261.9,132.5,261.9z"
         id="path6" /><path
         fill="#FFFFFF"
         d="M132.5,4.2c70.9,0,128.3,57.4,128.3,128.3s-57.4,128.3-128.3,128.3S4.2,203.4,4.2,132.5    S61.6,4.2,132.5,4.2 M132.5,2C97.6,2,64.9,15.6,40.2,40.2S2,97.6,2,132.5s13.6,67.6,38.2,92.3S97.6,263,132.5,263    s67.6-13.6,92.3-38.2s38.2-57.4,38.2-92.3s-13.6-67.6-38.2-92.2S167.4,2,132.5,2L132.5,2z"
         id="path8" /></g><g
       id="g7"><path
         id="path9"
         fill="#333333"
         d="M101.3,113.6L87.8,95.1v18.5h-3V90.4h3l13.4,18.1V90.3h3v23.2    C104,113.6,101.3,113.6,101.3,113.6z" /><path
         id="path11"
         fill="#333333"
         d="M111.2,113.6V90.4h15.2v2.6h-12.3v7.4h12v2.6h-12v7.9h12.3v2.6L111.2,113.6L111.2,113.6z" /><path
         id="path13"
         fill="#333333"
         d="M150.5,113.6l-5.2-18.8l-5.2,18.8H137l-6.4-23.2h3.2l5.2,19.3l5.4-19.3h2.4l5.4,19.3l5.2-19.3    h3.2l-6.5,23.1L150.5,113.6L150.5,113.6z" /><path
         id="path15"
         fill="#333333"
         d="M163.9,110.3l1.8-2.2c1.5,1.8,4.1,3.3,7.2,3.3c4.2,0,5.4-2.2,5.4-4c0-6.1-13.8-2.8-13.8-10.9    c0-3.8,3.4-6.4,7.9-6.4c3.6,0,6.3,1.2,8.2,3.2l-1.8,2.1c-1.8-2-4.2-2.9-6.6-2.9c-2.9,0-4.7,1.4-4.7,3.8c0,5.3,13.8,2.2,13.8,10.8    c0,3.4-2.3,6.7-8.5,6.7C168.6,114,165.6,112.5,163.9,110.3L163.9,110.3z" /></g><line
       id="line17"
       fill="none"
       stroke="#333333"
       stroke-miterlimit="10"
       x1="39.4"
       y1="130.4"
       x2="225.6"
       y2="130.4" /><g
       id="g19"><path
         id="path21"
         fill="#333333"
         d="M118.5,51.5c-6.5,0-12,5.4-12,12s5.4,12,12,12s12-5.4,12-12S125.1,51.5,118.5,51.5z     M118.5,74.8c-6.3,0-11.3-5.1-11.3-11.3s5.1-11.3,11.3-11.3s11.3,5,11.3,11.3S124.7,74.8,118.5,74.8z" /><path
         id="path23"
         fill="#333333"
         d="M118.5,54.3c-5.1,0-9.1,4.1-9.1,9.1s4.1,9.1,9.1,9.1c5,0,9.1-4.1,9.1-9.1    C127.5,58.5,123.6,54.3,118.5,54.3z M118.5,71.9c-4.6,0-8.4-3.8-8.4-8.4s3.8-8.4,8.4-8.4c4.6,0,8.4,3.8,8.4,8.4    S123.1,71.9,118.5,71.9z" /><path
         id="path25"
         fill="#333333"
         d="M118.5,53c-5.9,0-10.5,4.7-10.5,10.5c0,5.6,4.6,10.5,10.5,10.5c5.9,0,10.5-4.7,10.5-10.5    C128.9,57.9,124.3,53,118.5,53z M118.5,73.3c-5.4,0-9.7-4.4-9.7-9.7c0-5.4,4.4-9.7,9.7-9.7c5.4,0,9.7,4.4,9.7,9.7    C128.2,68.9,123.9,73.3,118.5,73.3z" /><path
         id="path27"
         fill="#333333"
         d="M146.7,51.5c-6.5,0-12,5.4-12,12s5.4,12,12,12c6.5,0,12-5.4,12-12S153.3,51.5,146.7,51.5z     M146.7,74.8c-6.3,0-11.3-5.1-11.3-11.3s5.1-11.3,11.3-11.3S158,57.3,158,63.5C158,69.8,152.9,74.8,146.7,74.8z" /><path
         id="path29"
         fill="#333333"
         d="M146.7,54.3c-5.1,0-9.1,4.1-9.1,9.1s4.1,9.1,9.1,9.1c5.1,0,9.1-4.1,9.1-9.1    C155.8,58.5,151.8,54.3,146.7,54.3z M146.7,71.9c-4.6,0-8.4-3.8-8.4-8.4s3.8-8.4,8.4-8.4c4.6,0,8.4,3.8,8.4,8.4    S151.4,71.9,146.7,71.9z" /><path
         id="path31"
         fill="#333333"
         d="M146.7,53c-5.9,0-10.5,4.7-10.5,10.5c0,5.6,4.6,10.5,10.5,10.5s10.5-4.7,10.5-10.5    C157.1,57.9,152.5,53,146.7,53z M146.7,73.3c-5.4,0-9.7-4.4-9.7-9.7c0-5.4,4.4-9.7,9.7-9.7c5.4,0,9.7,4.4,9.7,9.7    C156.5,68.9,152.2,73.3,146.7,73.3z" /><path
         id="path33"
         fill="#333333"
         d="M173,51.5h-5h-0.4h-0.3v24h0.4h0.4h5c6.5,0,12-5.4,12-12S179.6,51.5,173,51.5z M173,72.7    c5.1,0,9.1-4.1,9.1-9.1s-4.1-9.1-9.1-9.1h-5v-0.7h5c5.4,0,9.7,4.4,9.7,9.7c0,5.4-4.4,9.7-9.7,9.7h-5v-0.7    C168.1,72.7,173,72.7,173,72.7z M168.1,71.9V55.1h5c4.6,0,8.4,3.8,8.4,8.4s-3.8,8.4-8.4,8.4H168.1L168.1,71.9z M173,74.8h-5V74h5    c5.9,0,10.5-4.7,10.5-10.5c0-5.6-4.7-10.5-10.5-10.5h-5v-0.8h5c6.3,0,11.3,5.1,11.3,11.3C184.4,69.9,179.2,74.8,173,74.8z" /><rect
         id="rect35"
         x="164.6"
         y="51.5"
         fill="#333333"
         width="0.7"
         height="24" /><rect
         id="rect37"
         x="166"
         y="51.5"
         fill="#333333"
         width="0.7"
         height="24" /><path
         id="path39"
         fill="#333333"
         d="M91.8,51.5c-6.5,0-12,5.4-12,12s5.4,12,12,12c2.2,0,4.3-0.6,6.1-1.7c0.2-0.1,0.4-0.3,0.7-0.4    v-0.9v-1.1v-1v-1v-1.1v-1.9v-0.6v-0.7l0,0h-0.7h-7.1v0.7h7.1l0,0v0.6v2.6c-1.5,1.5-3.8,2.5-6.1,2.5c-4.6,0-8.4-3.8-8.4-8.4    s3.8-8.4,8.4-8.4c2.6,0,5,1.2,6.4,3l0.6-0.4c-1.7-2.1-4.3-3.4-7.1-3.4c-5.1,0-9.1,4.1-9.1,9.1s4.1,9.1,9.1,9.1    c2.3,0,4.4-0.9,6.1-2.3v0.9c-1.7,1.3-3.8,2.1-6.1,2.1c-5.4,0-9.7-4.4-9.7-9.7c0-5.4,4.4-9.7,9.7-9.7c3.1,0,6,1.4,7.6,3.8l0.7-0.2    c-2-2.5-5-4.1-8.3-4.1c-5.9,0-10.5,4.7-10.5,10.5c0,5.6,4.7,10.7,10.5,10.7c2.2,0,4.3-0.7,6.1-2v1c-1.8,1.1-3.8,1.8-6.1,1.8    c-6.3,0-11.3-5.1-11.3-11.3s5.2-11.3,11.4-11.3c3.8,0,7,1.8,8.9,4.5l0.6-0.4C99.3,53.4,95.6,51.5,91.8,51.5z" /><path
         id="path41"
         fill="#333333"
         d="M90.5,63.3h7.1h0.7h0.7h0.8h0.7l0,0v0.7v0.7v0.7v0.7v0.6v3.9v1.1c0.3-0.3,0.4-0.6,0.7-0.9    v-1.2v-3v-0.6v-0.7v-0.6v-0.7v-0.7v-0.7l0,0l0,0H90.3L90.5,63.3L90.5,63.3z" /><path
         id="path43"
         fill="#333333"
         d="M98.5,64h-0.7h-7.1v0.7h7.1h0.7h0.7l0,0v0.7V66v0.6V72v1c0.2-0.2,0.4-0.4,0.7-0.6v-1v-4.6    v-0.6v-0.7v-0.7v-0.7l0,0h-0.7L98.5,64L98.5,64z" /></g></g><flowRoot
     xml:space="preserve"
     id="flowRoot3024"
     style="font-size:40px;font-style:normal;font-weight:normal;line-height:125%;letter-spacing:0px;word-spacing:0px;fill:#000000;fill-opacity:1;stroke:none;font-family:Sans"
     transform="translate(425.74121,43.341186)"><flowRegion
       id="flowRegion3026"><rect
         id="rect3028"
         width="185.78746"
         height="81.212502"
         x="-383.8125"
         y="93.674995" /></flowRegion><flowPara
       id="flowPara3030"
       style="font-size:13px">To stay up to date with our latest news, films and jobs - subscribe to the mailing list.</flowPara></flowRoot></svg>