<?xml version="1.0" encoding="UTF-8" standalone="no"?>
<svg
   xmlns:dc="http://purl.org/dc/elements/1.1/"
   xmlns:cc="http://creativecommons.org/ns#"
   xmlns:rdf="http://www.w3.org/1999/02/22-rdf-syntax-ns#"
   xmlns:svg="http://www.w3.org/2000/svg"
   xmlns="http://www.w3.org/2000/svg"
   viewBox="0 0 1570.6875 2187.2251"
   height="2187.2251"
   width="1570.6875"
   xml:space="preserve"
   version="1.1"
   id="svg2"><metadata
     id="metadata8"><rdf:RDF><cc:Work
         rdf:about=""><dc:format>image/svg+xml</dc:format><dc:type
           rdf:resource="http://purl.org/dc/dcmitype/StillImage" /><dc:title></dc:title></cc:Work></rdf:RDF></metadata><defs
     id="defs6" /><g
     transform="matrix(1.25,0,0,-1.25,0,2187.225)"
     id="g10"><path
       id="path12"
       style="fill:#efee0e;fill-opacity:1;fill-rule:nonzero;stroke:none"
       d="m 24.496,24.496 1207.559,0 0,1700.788 -1207.559,0 0,-1700.788 z" /><text
       id="text14"
       style="font-variant:normal;font-weight:normal;font-stretch:normal;font-size:90.75939941px;font-family:'Janson Text';-inkscape-font-specification:JansonText-Roman;writing-mode:lr-tb;fill:#231f20;fill-opacity:1;fill-rule:nonzero;stroke:none"
       transform="matrix(1,0,0,-1,109.5381,1528.4961)"><tspan
         id="tspan16"
         y="0"
         x="0 70.610817 121.07304 163.09464 186.60133 221.90674 247.13785 287.43503 337.89725 361.40393 437.0065 477.30368 527.76593 551.27258 576.50372 601.7348 643.75641 685.77802 734.51581 758.02252 821.91711 847.14825 877.37109 927.83337 976.57117 1025.309 1055.5319">The rich man lived without </tspan><tspan
         id="tspan18"
         y="113.44925"
         x="0 48.737797 97.475594 139.49719 181.5188 216.8242 247.04709 290.70236 314.20905 354.50623 404.96844 453.70624 477.21292 541.10754 581.40472 631.86694 662.08984 685.5965 709.10321 757.841 806.5788 836.8017 860.30835 893.88934 934.18652 998.08112">poverty and want, but saw </tspan><tspan
         id="tspan20"
         y="226.8985"
         x="0 30.222879 80.685104 120.98228 151.20515 174.71184 223.44965 253.67252 304.13474 346.15634 381.46176 415.04272 438.54941 502.44403 544.46564 579.77106 621.79266 645.29932 694.03711 736.05872 766.28162 796.50452 838.52612 873.83148 897.3382 946.07599 974.66522 1003.2544">that others were better off </tspan><tspan
         id="tspan22"
         y="340.34775"
         x="0 30.222879 80.685104 120.98228 171.4445 194.95119 245.41342 287.43503">than he.</tspan><tspan
         id="tspan24"
         y="453.797"
         x="0 33.580978 63.80386 87.310539 151.20515 191.50233 225.08331 248.59 299.05222 347.79001 378.01291 401.51959 441.81677 467.04788 509.06949 549.36664 584.67206 608.17871 638.40161 687.1394 710.64612 761.10834 786.33942 819.92041 843.42712 919.02966 944.2608 994.72302 1043.4608">It was not clear to his mind </tspan><tspan
         id="tspan26"
         y="567.24628"
         x="0 63.894619 114.35684 158.01212 181.5188 231.98103 274.00262 297.50931 321.01599 384.91061 435.37283 484.11063 507.61731 556.3551 581.58624 630.32404 653.83069 729.43329 778.17108 813.4765 855.49811 879.00476 907.59399 956.33179 991.63721">why he, who did more for </tspan><tspan
         id="tspan28"
         y="680.6955"
         x="0 33.580978 82.318779 122.61595 147.84706 189.86867 220.09154 263.74683 287.25351 317.47638 367.9386 408.23578 458.698 482.20468 522.50189 572.96411 616.61938 640.12604 688.86383 719.08673 769.54895 811.57056 841.43945 864.94617">society than any other, </tspan><tspan
         id="tspan30"
         y="794.14478"
         x="0 33.580978 84.043205 132.78101 181.5188 206.74991 255.48772 278.99438 327.73221 369.75378 393.26047 423.48337 473.94559 515.96716 539.47388 588.21167 638.67389 680.6955 704.20221 734.42505 783.16284 806.66956 840.25055 888.98834 917.57751 946.16675 988.18835 1023.4938">should be the one to suffer </tspan><tspan
         id="tspan32"
         y="907.59399"
         x="0 48.737797 99.200027 147.93782 189.95943 225.26483 248.77151 278.99438 329.45663 371.47821 405.0592 447.08081 470.58749 510.88467 559.62244 610.08472 658.82251 684.05359 714.27649 739.50757 788.24536 838.70764 872.28857">under these conditions.</tspan><tspan
         id="tspan34"
         y="1021.0432"
         x="0 91.95742 132.25459 182.71683 212.9397 236.4464 276.74356 325.48135 375.94357 424.6814 473.41919 515.4408 550.74622 592.76782 641.50562 665.01227 715.47449 740.70563 774.28662">Want conquered his </tspan><tspan
         id="tspan36"
         y="1134.4926"
         x="0 25.231113 75.693336 126.15556 168.17717 203.48257 228.71368 258.93655 300.95816 349.69595 373.20267 408.50806 450.52966 484.11063 532.84845 574.87006 615.16724 645.39008 668.89679 697.48596 746.22382 781.52917 805.03589 835.25873 885.72101">inherited respect for the</tspan><tspan
         id="tspan38"
         y="1247.9417"
         x="0 33.580978 73.878151 114.17532 149.48073 191.50233 240.24013 290.70236 332.72397 366.30493 399.88593 423.39261 472.1304 500.7196 524.22632 572.96411 608.26947 657.00732 705.74512 747.76672 783.07208 813.29498 856.95026 880.45691 920.75409 971.21637 1019.9542">sacredness of property and </tspan><tspan
         id="tspan40"
         y="1361.391"
         x="0 50.462227 92.483826 115.99052 149.57149 179.79437 228.53217 253.76328 295.78488">he stole.</tspan></text>
<text
       id="text42"
       style="font-variant:normal;font-weight:300;font-stretch:normal;font-size:18px;font-family:'TradeGothic Light';-inkscape-font-specification:TradeGothic-Light;writing-mode:lr-tb;fill:#231f20;fill-opacity:1;fill-rule:nonzero;stroke:none"
       transform="matrix(0,1,1,0,1219.5513,37)"><tspan
         id="tspan44"
         y="0"
         x="0 10.008 20.016001 31.014 43.02 56.015999 68.022003 78.029999 90.036003 95.040001 105.048 110.052 122.058 135.054 145.062 150.06599 160.07401 170.082 180.09">SECONDEDITIONS 2015</tspan></text>
<g
       transform="translate(27,1716.7795)"
       id="g46"><path
         id="path48"
         style="fill:none;stroke:#ffffff;stroke-width:0.625;stroke-linecap:butt;stroke-linejoin:miter;stroke-miterlimit:10;stroke-dasharray:none;stroke-opacity:1"
         d="m 0,0 -27,0 m 1229.551,0 27,0 M 0,-1683.78 l -27,0 m 1229.551,0 27,0 M 6,6 6,33 m 0,-1722.78 0,-27 M 1196.551,6 l 0,27 m 0,-1722.78 0,-27" /></g><g
       transform="translate(27,1716.7795)"
       id="g50"><path
         id="path52"
         style="fill:none;stroke:#000000;stroke-width:0.125;stroke-linecap:butt;stroke-linejoin:miter;stroke-miterlimit:10;stroke-dasharray:none;stroke-opacity:1"
         d="m 0,0 -27,0 m 1229.551,0 27,0 M 0,-1683.78 l -27,0 m 1229.551,0 27,0 M 6,6 6,33 m 0,-1722.78 0,-27 M 1196.551,6 l 0,27 m 0,-1722.78 0,-27" /></g></g></svg>