<?xml version="1.0" encoding="UTF-8" standalone="no"?>
<!-- Generator: Adobe Illustrator 19.0.0, SVG Export Plug-In . SVG Version: 6.00 Build 0)  -->

<svg
   xmlns:dc="http://purl.org/dc/elements/1.1/"
   xmlns:cc="http://creativecommons.org/ns#"
   xmlns:rdf="http://www.w3.org/1999/02/22-rdf-syntax-ns#"
   xmlns:svg="http://www.w3.org/2000/svg"
   xmlns="http://www.w3.org/2000/svg"
   xmlns:sodipodi="http://sodipodi.sourceforge.net/DTD/sodipodi-0.dtd"
   xmlns:inkscape="http://www.inkscape.org/namespaces/inkscape"
   version="1.1"
   id="Layer_1"
   x="0px"
   y="0px"
   viewBox="0 0 359.8 204.1"
   style="enable-background:new 0 0 359.8 204.1;"
   xml:space="preserve"
   inkscape:version="0.91 r13725"
   sodipodi:docname="tech.svg"
   inkscape:export-filename="/home/sam/Workspace/MAwork/tfg/static/assets/img/brand/team.png"
   inkscape:export-xdpi="90"
   inkscape:export-ydpi="90"><metadata
     id="metadata37"><rdf:RDF><cc:Work
         rdf:about=""><dc:format>image/svg+xml</dc:format><dc:type
           rdf:resource="http://purl.org/dc/dcmitype/StillImage" /><dc:title></dc:title></cc:Work></rdf:RDF></metadata><defs
     id="defs35" /><sodipodi:namedview
     pagecolor="#ffffff"
     bordercolor="#666666"
     borderopacity="1"
     objecttolerance="10"
     gridtolerance="10"
     guidetolerance="10"
     inkscape:pageopacity="0"
     inkscape:pageshadow="2"
     inkscape:window-width="1131"
     inkscape:window-height="740"
     id="namedview33"
     showgrid="false"
     inkscape:zoom="2.1972168"
     inkscape:cx="179.89999"
     inkscape:cy="102.05"
     inkscape:window-x="222"
     inkscape:window-y="210"
     inkscape:window-maximized="0"
     inkscape:current-layer="Layer_1" /><style
     type="text/css"
     id="style3">
	.st0{fill:#333333;}
	.st1{fill:#010101;}
	.st2{font-family:'ProximaNovaBold';}
	.st3{font-size:43px;}
	.st4{letter-spacing:2;}
</style><g
     id="XMLID_2_"><g
       id="g6"><g
         id="g8"><path
           id="XMLID_95_"
           class="st0"
           d="M352.8,7v190.1H7V7H352.8 M359.8,0H0v204.1h359.8V0L359.8,0z" /></g><g
         id="g11"><path
           class="st0"
           d="M129.1,112.5c-16.8,0-30.6,13.7-30.6,30.6s13.7,30.6,30.6,30.6s30.6-13.7,30.6-30.6S146,112.5,129.1,112.5z      M129.1,171.8c-15.9,0-28.8-12.9-28.8-28.8s12.9-28.8,28.8-28.8s28.8,12.9,28.8,28.8S145,171.8,129.1,171.8z"
           id="path13" /><path
           class="st0"
           d="M129.1,119.9c-12.8,0-23.1,10.4-23.1,23.1c0,12.8,10.4,23.1,23.1,23.1c12.8,0,23.1-10.4,23.1-23.1     C152.3,130.2,141.9,119.9,129.1,119.9z M129.1,164.4c-11.8,0-21.4-9.6-21.4-21.4s9.6-21.4,21.4-21.4c11.8,0,21.4,9.6,21.4,21.4     S140.9,164.4,129.1,164.4z"
           id="path15" /><path
           class="st0"
           d="M129.1,116.3c-14.7,0-26.7,12-26.7,26.7c0,14.7,12,26.7,26.7,26.7c14.7,0,26.7-12,26.7-26.7     C155.8,128.3,143.8,116.3,129.1,116.3z M129.1,167.9c-13.7,0-24.9-11.2-24.9-24.9s11.2-24.9,24.9-24.9     c13.7,0,24.9,11.2,24.9,24.9S142.9,167.9,129.1,167.9z"
           id="path17" /><path
           class="st0"
           d="M201.1,112.5c-16.8,0-30.6,13.7-30.6,30.6s13.7,30.6,30.6,30.6s30.6-13.7,30.6-30.6S217.9,112.5,201.1,112.5     z M201.1,171.8c-15.9,0-28.8-12.9-28.8-28.8s12.9-28.8,28.8-28.8s28.8,12.9,28.8,28.8S217,171.8,201.1,171.8z"
           id="path19" /><path
           class="st0"
           d="M201.1,119.9c-12.8,0-23.1,10.4-23.1,23.1c0,12.8,10.4,23.1,23.1,23.1c12.8,0,23.1-10.4,23.1-23.1     C224.2,130.2,213.9,119.9,201.1,119.9z M201.1,164.4c-11.8,0-21.4-9.6-21.4-21.4s9.6-21.4,21.4-21.4c11.8,0,21.4,9.6,21.4,21.4     S212.9,164.4,201.1,164.4z"
           id="path21" /><path
           class="st0"
           d="M201.1,116.3c-14.7,0-26.7,12-26.7,26.7c0,14.7,12,26.7,26.7,26.7c14.7,0,26.7-12,26.7-26.7     C227.8,128.3,215.8,116.3,201.1,116.3z M201.1,167.9c-13.7,0-24.9-11.2-24.9-24.9s11.2-24.9,24.9-24.9     c13.7,0,24.9,11.2,24.9,24.9S214.8,167.9,201.1,167.9z"
           id="path23" /><path
           class="st0"
           d="M268.1,112.5h-12.7h-0.9h-0.9v61.1h0.9h0.9h12.7c16.8,0,30.6-13.7,30.6-30.6S285,112.5,268.1,112.5z      M268.1,166.1c12.8,0,23.1-10.4,23.1-23.1c0-12.8-10.4-23.1-23.1-23.1h-12.7v-1.8h12.7c13.7,0,24.9,11.2,24.9,24.9     s-11.2,24.9-24.9,24.9h-12.7v-1.8H268.1z M255.4,164.4v-42.7h12.7c11.8,0,21.4,9.6,21.4,21.4s-9.6,21.4-21.4,21.4H255.4z      M268.1,171.8h-12.7v-2.1h12.7c14.7,0,26.7-12,26.7-26.7c0-14.7-12-26.7-26.7-26.7h-12.7v-2.1h12.7c15.9,0,28.8,12.9,28.8,28.8     S284,171.8,268.1,171.8z"
           id="path25" /><rect
           id="XMLID_8_"
           x="246.5"
           y="112.5"
           class="st0"
           width="1.8"
           height="61.1" /><rect
           id="XMLID_7_"
           x="250.1"
           y="112.5"
           class="st0"
           width="1.8"
           height="61.1" /><path
           id="XMLID_6_"
           class="st0"
           d="M61.1,112.5c-16.8,0-30.6,13.7-30.6,30.6s13.7,30.6,30.6,30.6c5.6,0,10.8-1.5,15.3-4.1     c0.6-0.4,1.2-0.7,1.8-1.1v-2.2v-2.6v-2.4v-2.5v-2.8v-4.6v-1.5V148v-0.1h-1.8H58.2v1.8h18.2v0.1v1.4v6.7c-3.9,4-9.3,6.5-15.3,6.5     c-11.8,0-21.4-9.6-21.4-21.4s9.6-21.4,21.4-21.4c6.6,0,12.5,3,16.4,7.7l1.5-0.9c-4.2-5.3-10.7-8.6-18-8.6     C48.4,119.9,38,130.2,38,143c0,12.8,10.4,23.1,23.1,23.1c5.9,0,11.2-2.2,15.3-5.8v2.3c-4.2,3.3-9.5,5.3-15.3,5.3     c-13.7,0-24.9-11.2-24.9-24.9s11.2-24.9,24.9-24.9c7.9,0,15,3.7,19.5,9.5l1.6-0.9c-4.9-6.3-12.5-10.4-21.1-10.4     c-14.7,0-26.7,12-26.7,26.7c0,14.7,12,26.7,26.7,26.7c5.7,0,10.9-1.8,15.3-4.8v2.5c-4.4,2.8-9.7,4.4-15.3,4.4     c-15.9,0-28.8-12.9-28.8-28.8s12.9-28.8,28.8-28.8c9.3,0,17.6,4.5,22.9,11.4l1.5-0.9C80,117.3,71.1,112.5,61.1,112.5z" /><path
           id="XMLID_5_"
           class="st0"
           d="M58.2,142.6h18.2h1.8h1.8h1.8h1.8v0.1v1.7v1.8v1.8v1.8v1.5v9.9v2.7c0.6-0.7,1.2-1.4,1.8-2.1     v-3.1v-7.4v-1.5v-1.8v-1.8v-1.8v-1.8v-1.7v0v0H58.2V142.6z" /><path
           id="XMLID_4_"
           class="st0"
           d="M78.2,144.4h-1.8H58.2v1.8h18.2h1.8h1.8v0.1v1.7v1.8v1.5v13.5v2.3c0.6-0.5,1.2-1,1.8-1.5v-2.5     v-11.9v-1.5v-1.8v-1.8v-1.7v-0.1h-1.8H78.2z" /></g></g><text
       id="XMLID_3_"
       transform="translate(30.5581,90.3743)"
       class="st1 st2 st3 st4"
       style="font-size:43px;font-family:ProximaNovaBold;letter-spacing:2;fill:#010101">TECH for</text>
</g></svg>