<?xml version="1.0" encoding="utf-8"?>
<!-- Generator: Adobe Illustrator 18.1.0, SVG Export Plug-In . SVG Version: 6.00 Build 0)  -->
<!DOCTYPE svg PUBLIC "-//W3C//DTD SVG 1.1//EN" "http://www.w3.org/Graphics/SVG/1.1/DTD/svg11.dtd">
<svg version="1.1" id="Layer_1" xmlns="http://www.w3.org/2000/svg" xmlns:xlink="http://www.w3.org/1999/xlink" x="0px" y="0px"
	 viewBox="0 0 241.4 50.4" enable-background="new 0 0 241.4 50.4" xml:space="preserve">
<g>
	<path fill="#333333" d="M229.7,44.4c0-3.2,2.7-5.8,5.8-5.8s5.8,2.7,5.8,5.8c0,3.2-2.7,5.8-5.8,5.8S229.7,47.5,229.7,44.4z"/>
</g>
<g>
	<path fill="#333333" d="M83.4,0C69.5,0,58.2,11.3,58.2,25.2s11.3,25.2,25.2,25.2s25.2-11.3,25.2-25.2S97.3,0,83.4,0z M83.4,49
		c-13.1,0-23.7-10.7-23.7-23.7S70.3,1.5,83.4,1.5s23.7,10.7,23.7,23.7S96.5,49,83.4,49z"/>
	<path fill="#333333" d="M83.4,6.1c-10.5,0-19.1,8.6-19.1,19.1s8.6,19.1,19.1,19.1c10.5,0,19.1-8.6,19.1-19.1S93.9,6.1,83.4,6.1z
		 M83.4,42.8c-9.7,0-17.6-7.9-17.6-17.6S73.6,7.6,83.4,7.6c9.7,0,17.6,7.9,17.6,17.6S93.1,42.8,83.4,42.8z"/>
	<path fill="#333333" d="M83.4,3.2c-12.1,0-22,9.9-22,22s9.9,22,22,22c12.1,0,22-9.9,22-22S95.5,3.2,83.4,3.2z M83.4,45.8
		c-11.3,0-20.6-9.2-20.6-20.6S72,4.7,83.4,4.7c11.3,0,20.6,9.2,20.6,20.6S94.7,45.8,83.4,45.8z"/>
	<path fill="#333333" d="M142.7,0c-13.9,0-25.2,11.3-25.2,25.2s11.3,25.2,25.2,25.2S168,39.1,168,25.2S156.6,0,142.7,0z M142.7,49
		C129.7,49,119,38.3,119,25.2s10.7-23.7,23.7-23.7s23.7,10.7,23.7,23.7S155.8,49,142.7,49z"/>
	<path fill="#333333" d="M142.7,6.1c-10.5,0-19.1,8.6-19.1,19.1s8.6,19.1,19.1,19.1c10.5,0,19.1-8.6,19.1-19.1S153.3,6.1,142.7,6.1z
		 M142.7,42.8c-9.7,0-17.6-7.9-17.6-17.6S133,7.6,142.7,7.6c9.7,0,17.6,7.9,17.6,17.6S152.5,42.8,142.7,42.8z"/>
	<path fill="#333333" d="M142.7,3.2c-12.1,0-22,9.9-22,22s9.9,22,22,22c12.1,0,22-9.9,22-22S154.9,3.2,142.7,3.2z M142.7,45.8
		c-11.3,0-20.6-9.2-20.6-20.6s9.2-20.6,20.6-20.6c11.3,0,20.6,9.2,20.6,20.6S154.1,45.8,142.7,45.8z"/>
	<path fill="#333333" d="M198,0h-10.5h-0.7h-0.7v50.4h0.7h0.7H198c13.9,0,25.2-11.3,25.2-25.2S211.9,0,198,0z M198,44.3
		c10.5,0,19.1-8.6,19.1-19.1S208.6,6.1,198,6.1h-10.5V4.7H198c11.3,0,20.6,9.2,20.6,20.6s-9.2,20.6-20.6,20.6h-10.5v-1.5H198z
		 M187.6,42.8V7.6H198c9.7,0,17.6,7.9,17.6,17.6s-7.9,17.6-17.6,17.6H187.6z M198,49h-10.5v-1.7H198c12.1,0,22-9.9,22-22
		s-9.9-22-22-22h-10.5V1.5H198c13.1,0,23.7,10.7,23.7,23.7S211.1,49,198,49z"/>
	<rect x="180.2" y="0" fill="#333333" width="1.5" height="50.4"/>
	<rect x="183.2" y="0" fill="#333333" width="1.5" height="50.4"/>
	<path fill="#333333" d="M27.3,0C13.4,0,2.1,11.3,2.1,25.2s11.3,25.2,25.2,25.2c4.6,0,8.9-1.2,12.6-3.4c0.5-0.3,1-0.6,1.5-0.9v-1.8
		v-2.2v-2v-2.1v-2.3V32v-1.2v-1.4v-0.1h-1.5h-15v1.5h15v0.1V32v5.5c-3.2,3.3-7.7,5.3-12.6,5.3c-9.7,0-17.6-7.9-17.6-17.6
		S17.5,7.6,27.3,7.6c5.5,0,10.3,2.5,13.6,6.4l1.3-0.7c-3.5-4.3-8.9-7.1-14.8-7.1c-10.5,0-19.1,8.6-19.1,19.1s8.6,19.1,19.1,19.1
		c4.8,0,9.2-1.8,12.6-4.8v1.9c-3.5,2.7-7.8,4.3-12.6,4.3c-11.3,0-20.6-9.2-20.6-20.6S15.9,4.7,27.3,4.7c6.5,0,12.3,3.1,16.1,7.8
		l1.3-0.8c-4-5.2-10.3-8.5-17.4-8.5c-12.1,0-22,9.9-22,22s9.9,22,22,22c4.7,0,9-1.5,12.6-4v2.1c-3.7,2.3-8,3.6-12.6,3.6
		C14.2,49,3.5,38.3,3.5,25.2S14.2,1.5,27.3,1.5c7.7,0,14.5,3.7,18.9,9.4l1.3-0.8C42.8,4,35.5,0,27.3,0z"/>
	<path fill="#333333" d="M24.9,24.9h15h1.5h1.5h1.5h1.5v0.1v1.4v1.5v1.5v1.5V32v8.1v2.3c0.5-0.6,1-1.1,1.5-1.7v-2.5V32v-1.2v-1.5
		v-1.5v-1.5v-1.5v-1.4v0v0H24.9V24.9z"/>
	<path fill="#333333" d="M41.3,26.3h-1.5h-15v1.5h15h1.5h1.5v0.1v1.4v1.5V32v11.2V45c0.5-0.4,1-0.8,1.5-1.3v-2V32v-1.2v-1.5v-1.5
		v-1.4v-0.1h-1.5H41.3z"/>
</g>
</svg>
