<?xml version="1.0" encoding="utf-8"?>
<!-- Generator: Adobe Illustrator 18.1.0, SVG Export Plug-In . SVG Version: 6.00 Build 0)  -->
<!DOCTYPE svg PUBLIC "-//W3C//DTD SVG 1.1//EN" "http://www.w3.org/Graphics/SVG/1.1/DTD/svg11.dtd">
<svg version="1.1" id="Layer_1" xmlns="http://www.w3.org/2000/svg" xmlns:xlink="http://www.w3.org/1999/xlink" x="0px" y="0px"
	 viewBox="0 0 207.7 49.8" enable-background="new 0 0 207.7 49.8" xml:space="preserve">
<g>
	<path fill="#333333" d="M41.8,48.8V15.2L28.2,48.8h-4.5L10.2,15.2v33.6H0v-48h14.3l11.7,29l11.7-29h14.4v48H41.8z"/>
	<path fill="#333333" d="M62.9,24.8C62.9,10.4,73.4,0,87.9,0C102.5,0,113,10.4,113,24.8s-10.6,24.8-25.1,24.8
		C73.4,49.7,62.9,39.3,62.9,24.8z M102.5,24.8c0-9-5.8-15.8-14.6-15.8c-8.9,0-14.5,6.8-14.5,15.8c0,8.9,5.7,15.8,14.5,15.8
		C96.8,40.6,102.5,33.8,102.5,24.8z"/>
	<path fill="#333333" d="M151,48.8l-9.4-17.1h-7.5v17.1h-10.2v-48h22.5c10,0,16.1,6.6,16.1,15.5c0,8.5-5.3,13-10.5,14.3l10.8,18.3
		H151z M152,16.3c0-4-3.1-6.5-7.2-6.5h-10.7v13h10.7C148.9,22.8,152,20.3,152,16.3z"/>
	<path fill="#333333" d="M173.7,48.8v-48h34v9H184v10.2h23.3v9H184v10.9h23.8v9H173.7z"/>
</g>
</svg>
