<?xml version="1.0" encoding="UTF-8" standalone="no"?>
<!-- Created with Inkscape (http://www.inkscape.org/) -->

<svg
   xmlns:dc="http://purl.org/dc/elements/1.1/"
   xmlns:cc="http://creativecommons.org/ns#"
   xmlns:rdf="http://www.w3.org/1999/02/22-rdf-syntax-ns#"
   xmlns:svg="http://www.w3.org/2000/svg"
   xmlns="http://www.w3.org/2000/svg"
   xmlns:sodipodi="http://sodipodi.sourceforge.net/DTD/sodipodi-0.dtd"
   xmlns:inkscape="http://www.inkscape.org/namespaces/inkscape"
   width="50"
   height="50"
   viewBox="0 0 50.000001 50.000001"
   id="svg2"
   version="1.1"
   inkscape:version="0.91 r13725"
   sodipodi:docname="cross.svg"
   inkscape:export-filename="/home/sam/cross.png"
   inkscape:export-xdpi="90"
   inkscape:export-ydpi="90">
  <defs
     id="defs4" />
  <sodipodi:namedview
     id="base"
     pagecolor="#ffffff"
     bordercolor="#666666"
     borderopacity="1.0"
     inkscape:pageopacity="0.0"
     inkscape:pageshadow="2"
     inkscape:zoom="2.8"
     inkscape:cx="-52.663781"
     inkscape:cy="13.394506"
     inkscape:document-units="px"
     inkscape:current-layer="layer1"
     showgrid="false"
     units="px"
     inkscape:window-width="1137"
     inkscape:window-height="693"
     inkscape:window-x="121"
     inkscape:window-y="311"
     inkscape:window-maximized="0" />
  <metadata
     id="metadata7">
    <rdf:RDF>
      <cc:Work
         rdf:about="">
        <dc:format>image/svg+xml</dc:format>
        <dc:type
           rdf:resource="http://purl.org/dc/dcmitype/StillImage" />
        <dc:title />
      </cc:Work>
    </rdf:RDF>
  </metadata>
  <g
     inkscape:label="Layer 1"
     inkscape:groupmode="layer"
     id="layer1"
     transform="translate(0,-1002.3622)">
    <rect
       style="opacity:1;fill:#ffffff;fill-opacity:1;stroke:none;stroke-width:1.60000002;stroke-miterlimit:4;stroke-dasharray:none;stroke-opacity:1"
       id="rect4137"
       width="50"
       height="50"
       x="0"
       y="1002.3622" />
    <rect
       style="opacity:1;fill:#ffffff;fill-opacity:0;stroke:none;stroke-width:1.60000002;stroke-miterlimit:4;stroke-dasharray:none;stroke-opacity:1"
       id="rect4136"
       width="50"
       height="50"
       x="0"
       y="1002.3622" />
    <g
       id="g4206"
       transform="translate(14.974975,1018.7856)">
      <path
         id="path4196"
         d="M 1.3,17.2 C 0.9,17.2 0.6,17 0.3,16.8 -0.1,16.3 -0.1,15.5 0.5,15 L 18,0.3 c 0.5,-0.4 1.3,-0.4 1.8,0.2 0.4,0.5 0.4,1.3 -0.2,1.8 L 2.1,16.9 c -0.3,0.2 -0.6,0.3 -0.8,0.3 z"
         inkscape:connector-curvature="0"
         style="fill:#333333" />
      <path
         id="path4198"
         d="m 18.8,17.2 c -0.3,0 -0.6,-0.1 -0.8,-0.3 L 0.4,2.2 C -0.1,1.8 -0.2,1 0.3,0.4 0.7,-0.1 1.5,-0.2 2.1,0.2 L 19.6,15 c 0.5,0.4 0.6,1.2 0.2,1.8 -0.3,0.3 -0.6,0.4 -1,0.4 z"
         inkscape:connector-curvature="0"
         style="fill:#333333" />
    </g>
  </g>
</svg>
