<?xml version="1.0" encoding="UTF-8" standalone="no"?>
<!-- Created with Inkscape (http://www.inkscape.org/) -->

<svg
   xmlns:dc="http://purl.org/dc/elements/1.1/"
   xmlns:cc="http://creativecommons.org/ns#"
   xmlns:rdf="http://www.w3.org/1999/02/22-rdf-syntax-ns#"
   xmlns:svg="http://www.w3.org/2000/svg"
   xmlns="http://www.w3.org/2000/svg"
   xmlns:sodipodi="http://sodipodi.sourceforge.net/DTD/sodipodi-0.dtd"
   xmlns:inkscape="http://www.inkscape.org/namespaces/inkscape"
   width="50"
   height="50"
   viewBox="0 0 50.000001 50.000001"
   id="svg2"
   version="1.1"
   inkscape:version="0.91 r13725"
   sodipodi:docname="menu.svg"
   inkscape:export-filename="/home/sam/Desktop/menu.png"
   inkscape:export-xdpi="90"
   inkscape:export-ydpi="90">
  <defs
     id="defs4" />
  <sodipodi:namedview
     id="base"
     pagecolor="#ffffff"
     bordercolor="#666666"
     borderopacity="1.0"
     inkscape:pageopacity="0.0"
     inkscape:pageshadow="2"
     inkscape:zoom="2.8"
     inkscape:cx="-52.663781"
     inkscape:cy="13.394506"
     inkscape:document-units="px"
     inkscape:current-layer="g4809"
     showgrid="false"
     units="px"
     inkscape:window-width="1137"
     inkscape:window-height="693"
     inkscape:window-x="29"
     inkscape:window-y="210"
     inkscape:window-maximized="0" />
  <metadata
     id="metadata7">
    <rdf:RDF>
      <cc:Work
         rdf:about="">
        <dc:format>image/svg+xml</dc:format>
        <dc:type
           rdf:resource="http://purl.org/dc/dcmitype/StillImage" />
        <dc:title />
      </cc:Work>
    </rdf:RDF>
  </metadata>
  <g
     inkscape:label="Layer 1"
     inkscape:groupmode="layer"
     id="layer1"
     transform="translate(0,-1002.3622)">
    <rect
       style="opacity:1;fill:#333333;fill-opacity:1;stroke:none;stroke-width:1.60000002;stroke-miterlimit:4;stroke-dasharray:none;stroke-opacity:1"
       id="rect4136"
       width="50"
       height="50"
       x="0"
       y="1002.3622" />
    <g
       id="g4809"
       transform="translate(14.65,1018.2122)">
      <path
         id="path4811"
         d="m 19,10.4 -17.3,0 C 1,10.4 0.4,9.8 0.4,9.1 0.4,8.4 1,7.8 1.7,7.8 l 17.3,0 c 0.7,0 1.3,0.6 1.3,1.3 0,0.7 -0.6,1.3 -1.3,1.3 z"
         inkscape:connector-curvature="0"
         style="fill:#e7e7e7;fill-opacity:1" />
      <path
         id="path4813"
         d="m 19,17.8 -17.3,0 C 1,17.8 0.4,17.2 0.4,16.5 0.4,15.8 1,15.2 1.7,15.2 l 17.3,0 c 0.7,0 1.3,0.6 1.3,1.3 0,0.7 -0.6,1.3 -1.3,1.3 z"
         inkscape:connector-curvature="0"
         style="fill:#e7e7e7;fill-opacity:1" />
      <path
         id="path4815"
         d="M 19,3.1 1.7,3.1 C 1,3.1 0.4,2.5 0.4,1.8 0.4,1.1 1,0.5 1.7,0.5 l 17.3,0 c 0.7,0 1.3,0.6 1.3,1.3 0,0.7 -0.6,1.3 -1.3,1.3 z"
         inkscape:connector-curvature="0"
         style="fill:#e7e7e7;fill-opacity:1" />
    </g>
  </g>
</svg>
