<?xml version="1.0" encoding="utf-8"?>
<!-- Generator: Adobe Illustrator 19.0.0, SVG Export Plug-In . SVG Version: 6.00 Build 0)  -->
<!DOCTYPE svg PUBLIC "-//W3C//DTD SVG 1.1//EN" "http://www.w3.org/Graphics/SVG/1.1/DTD/svg11.dtd">
<svg version="1.1" id="Layer_1" xmlns="http://www.w3.org/2000/svg" xmlns:xlink="http://www.w3.org/1999/xlink" x="0px" y="0px"
	 viewBox="-274 397.1 46 47.8" style="enable-background:new -274 397.1 46 47.8;" xml:space="preserve">
<style type="text/css">
	.st0{fill:#333333;}
</style>
<g>
	<path class="st0" d="M-229.8,417.5c0.3-0.5,0.3-1.3,0-1.9l-1.9-1.9c-0.3-0.3-0.5-0.3-1.1-0.3c-0.3,0-0.8,0-1.1,0.3l-14.5,14.2v1.1
		v2.7h4.3L-229.8,417.5z"/>
	<rect x="-264.4" y="407.6" class="st0" width="26.9" height="2.7"/>
	<polygon class="st0" points="-264.4,415.6 -239.4,415.6 -237.6,413.7 -237.6,412.9 -264.4,412.9 	"/>
	<rect x="-264.4" y="429.1" class="st0" width="13.4" height="2.7"/>
	<polygon class="st0" points="-264.4,421 -244.8,421 -242.1,418.3 -264.4,418.3 	"/>
	<path class="st0" d="M-232.2,423.7v10.8c0,3-2.4,5.4-5.4,5.4h-26.9c-3,0-5.4-2.4-5.4-5.4v-26.9c0-3,2.4-5.4,5.4-5.4h26.9
		c3,0,5.4,2.4,5.4,5.4v3.2c0.8,0,1.6,0.5,2.4,1.1l0.3,0.3v-4.6c0-4.6-3.5-8.1-8.1-8.1h-26.9c-4.6,0-8.1,3.5-8.1,8.1v26.9
		c0,4.6,3.5,8.1,8.1,8.1h26.9c4.6,0,8.1-3.5,8.1-8.1V421L-232.2,423.7z"/>
	<polygon class="st0" points="-264.4,426.4 -250.2,426.4 -249.9,426.1 -247.5,423.7 -264.4,423.7 	"/>
</g>
</svg>
