<?xml version="1.0" encoding="utf-8"?>
<!-- Generator: Adobe Illustrator 19.0.0, SVG Export Plug-In . SVG Version: 6.00 Build 0)  -->
<!DOCTYPE svg PUBLIC "-//W3C//DTD SVG 1.1//EN" "http://www.w3.org/Graphics/SVG/1.1/DTD/svg11.dtd">
<svg version="1.1" id="Layer_1" xmlns="http://www.w3.org/2000/svg" xmlns:xlink="http://www.w3.org/1999/xlink" x="0px" y="0px"
	 viewBox="-281 397.1 32.9 47.8" style="enable-background:new -281 397.1 32.9 47.8;" xml:space="preserve">
<style type="text/css">
	.st0{fill:#FFFFFF;}
</style>
<g>
	<g>
		<path class="st0" d="M-264.6,429c4.1,0,7.4-3.3,7.4-7.4v-14.7c0-4.1-3.3-7.4-7.4-7.4c-4.1,0-7.4,3.3-7.4,7.4v14.7
			C-272,425.7-268.7,429-264.6,429z"/>
		<path class="st0" d="M-251.8,421.6v-7.3c0-0.6-0.5-1.1-1.1-1.1c-0.6,0-1.1,0.5-1.1,1.1v7.3c0,5.8-4.7,10.5-10.5,10.5
			c-5.8,0-10.5-4.7-10.5-10.5v-7.3c0-0.6-0.5-1.1-1.1-1.1c-0.6,0-1.1,0.5-1.1,1.1v7.3c0,6.6,5.1,12.1,11.6,12.7v5.9h-9.2
			c-0.6,0-1.1,0.5-1.1,1.1c0,0.6,0.5,1.1,1.1,1.1h20.3c0.6,0,1.1-0.5,1.1-1.1c0-0.6-0.5-1.1-1.1-1.1h-8.9v-5.9
			C-256.9,433.7-251.8,428.3-251.8,421.6z"/>
	</g>
</g>
</svg>
