<?xml version="1.0" encoding="utf-8"?>
<!-- Generator: Adobe Illustrator 19.0.0, SVG Export Plug-In . SVG Version: 6.00 Build 0)  -->
<!DOCTYPE svg PUBLIC "-//W3C//DTD SVG 1.1//EN" "http://www.w3.org/Graphics/SVG/1.1/DTD/svg11.dtd">
<svg version="1.1" id="Layer_1" xmlns="http://www.w3.org/2000/svg" xmlns:xlink="http://www.w3.org/1999/xlink" x="0px" y="0px"
	 viewBox="0 0 65.5 47.8" style="enable-background:new 0 0 65.5 47.8;" xml:space="preserve">
<path id="XMLID_25_" d="M63.4,9.1c-0.8-3.4-3.6-5.9-6.9-6.2C48.6,2,40.6,1.5,32.6,1.5c-8,0-15.9,0.5-23.8,1.4
	C5.5,3.3,2.7,5.8,1.9,9.1c-1.1,4.8-1.1,10-1.1,15c0,4.9,0,10.2,1.1,15c0.8,3.4,3.5,5.9,6.9,6.2c7.9,0.9,15.9,1.4,23.8,1.4
	c8,0,15.9-0.5,23.8-1.4c3.3-0.4,6.1-2.9,6.9-6.2c1.1-4.8,1.1-10,1.1-15C64.5,19.2,64.5,13.9,63.4,9.1z M43.5,25.6l-15,8.1
	c-1.5,0.8-2.7,0.1-2.7-1.6V16.1c0-1.7,1.2-2.4,2.7-1.6l15,8.1C45,23.5,45,24.8,43.5,25.6z"/>
</svg>
