<?xml version="1.0" encoding="utf-8"?>
<!-- Generator: Adobe Illustrator 19.0.0, SVG Export Plug-In . SVG Version: 6.00 Build 0)  -->
<!DOCTYPE svg PUBLIC "-//W3C//DTD SVG 1.1//EN" "http://www.w3.org/Graphics/SVG/1.1/DTD/svg11.dtd">
<svg version="1.1" id="Layer_1" xmlns="http://www.w3.org/2000/svg" xmlns:xlink="http://www.w3.org/1999/xlink" x="0px" y="0px"
	 viewBox="-264 397.1 65.5 47.8" style="enable-background:new -264 397.1 65.5 47.8;" xml:space="preserve">
<style type="text/css">
	.st0{fill:#FFFFFF;}
</style>
<path class="st0" d="M-202.1,406.8c-0.7-3.2-3.4-5.6-6.5-5.9c-7.5-0.8-15.1-1.4-22.6-1.3c-7.5,0-15.1,0.5-22.6,1.3
	c-3.2,0.4-5.8,2.7-6.5,5.9c-1.1,4.6-1.1,9.5-1.1,14.2c0,4.7,0,9.7,1.1,14.2c0.7,3.2,3.4,5.6,6.5,5.9c7.5,0.8,15.1,1.4,22.6,1.4
	c7.5,0,15.1-0.5,22.6-1.4c3.2-0.4,5.8-2.7,6.5-5.9c1.1-4.6,1.1-9.5,1.1-14.2C-201,416.3-201,411.3-202.1,406.8z M-221,422.4
	l-14.2,7.7c-1.4,0.8-2.6,0.1-2.6-1.5v-15.1c0-1.6,1.2-2.3,2.6-1.5l14.2,7.7C-219.5,420.4-219.5,421.6-221,422.4z"/>
</svg>
