<?xml version="1.0" encoding="utf-8"?>
<!-- Generator: Adobe Illustrator 18.1.0, SVG Export Plug-In . SVG Version: 6.00 Build 0)  -->
<!DOCTYPE svg PUBLIC "-//W3C//DTD SVG 1.1//EN" "http://www.w3.org/Graphics/SVG/1.1/DTD/svg11.dtd">
<svg version="1.1" id="Layer_1" xmlns="http://www.w3.org/2000/svg" xmlns:xlink="http://www.w3.org/1999/xlink" x="0px" y="0px"
	 viewBox="0 0 37 37" enable-background="new 0 0 37 37" xml:space="preserve">
<g>
	<path fill="#FCFAED" d="M0.5,18.5c-0.1-9.8,8.2-18,18-18c9.8,0,18,8.2,18,18.1c0,9.8-8.2,18-18.1,17.9C8.6,36.5,0.4,28.3,0.5,18.5z
		 M18.5,4.6C10.9,4.5,4.6,10.9,4.5,18.4c0,7.6,6.4,14,13.9,14c7.6,0,14-6.4,14-13.9C32.5,10.9,26.1,4.5,18.5,4.6z"/>
	<path fill="#FCFAED" d="M17.6,17.3c-0.8,0-1.5,0-2.3,0c-0.1,0-0.2-0.1-0.2-0.2c-0.6-0.9-1.4-1.4-2.4-1.4c-1.1,0-1.9,0.6-2.4,1.5
		c-0.7,1.3-0.1,3,1.2,3.7c1.3,0.7,2.9,0.2,3.7-1c0.1-0.2,0.2-0.3,0.4-0.2c0.7,0,1.4,0,2.1,0c-0.2,1.6-2,3.9-4.9,3.9
		c-2.7,0-5-2.2-5.1-4.8c-0.1-2.9,2-5.2,4.8-5.3C15.3,13.3,17.2,15.5,17.6,17.3z"/>
	<path fill="#FCFAED" d="M28.6,17.3c-0.8,0-1.5,0-2.3,0c-0.1,0-0.2-0.1-0.3-0.2c-0.8-1.3-2.4-1.8-3.7-1.1c-1.1,0.6-1.6,1.7-1.5,2.9
		c0.1,1.1,1,2,2.1,2.3c1.1,0.3,2.3-0.2,2.9-1.2c0.2-0.3,0.3-0.3,0.6-0.3c0.7,0,1.3,0,2,0c-0.2,1.6-2,3.9-4.8,3.9
		c-2.6,0-4.9-2-5.1-4.6c-0.2-2.8,1.7-5.2,4.4-5.5C25.6,13.1,28.1,14.9,28.6,17.3z"/>
</g>
</svg>
